<?xml version="1.0" encoding="utf-8"?>
<!-- Generator: Adobe Illustrator 27.0.1, SVG Export Plug-In . SVG Version: 6.00 Build 0)  -->
<svg version="1.1" id="Layer_1" xmlns="http://www.w3.org/2000/svg" xmlns:xlink="http://www.w3.org/1999/xlink" x="0px" y="0px"
	 viewBox="0 0 4000 4000" style="enable-background:new 0 0 4000 4000;" xml:space="preserve">
<style type="text/css">
	.st0{clip-path:url(#SVGID_00000078012688914022253110000009550979502439842731_);}
</style>
<g>
	<defs>
		<circle id="SVGID_1_" cx="1971.41" cy="2115.94" r="1944.84"/>
	</defs>
	<clipPath id="SVGID_00000124879054883350054290000018100526914521512602_">
		<use xlink:href="#SVGID_1_"  style="overflow:visible;"/>
	</clipPath>
	<g style="clip-path:url(#SVGID_00000124879054883350054290000018100526914521512602_);">
		<g>
			<path d="M628.78,3961.43c-27.73,0-55.47,0-83.2,0c-9.46-26.44-22.5-40.33-53.34-23.92c-18.64,9.92-51.63,13.1-55.87-8.07
				c-8.14-40.69-39.5-53.93-64.9-75.44c-8.11-6.87-17.16-12.63-25.79-18.89c3.61,8.62,10.06,17.17,10.28,25.87
				c0.53,21.39-6.74,44.04,30.59,39.55c11.32-1.36,7.36,15.55,0.37,23.73c-9.61,11.24-23.32,19.79-22.87,37.18
				c-113.45,0-226.92-1.04-340.34,0.78c-25.98,0.42-31.03-5.14-30.99-31.04c0.92-645.42,0.73-1290.83,0.73-1936.25
				c20.45-22.47,38.46-46.5,48.4-75.69c-26.97,7.77-24.72,42.23-48.4,53c0-839.55,0-1679.09,0-2518.64
				c24.62,37.77,72.2,64.26,54.46,122.53c-5.53,18.16,13.79,25.48,30.06,32.33c19.09,8.04,51.04,6.39,31,48.42
				c-8.09,16.96,16.8,47.74,41.85,59.77c20.09,9.65,45.58,15.01,57.62-8.33c46.72-90.6,63.16,27.24,99,13.84
				c6.45-2.41,17.32,7.01,26.16,10.97c-19.57,29.72,13.04,39.44,23.46,56.55c7.18,11.8,22.03,20.71,10.36,34.94
				c-13.44,16.38-26.75,5.87-38.19-5.61c-6.82-6.84-13.4-18.77-24.1-6.42c-10.37,11.96-25.94,25.75-25.85,38.63
				c0.09,12.43,18.9,1.09,29.28,2.32c9.53,1.13,24.4,1.24,27.04,6.63c4.55,9.31-9.35,11.88-15.74,17.24
				c-31.86,26.78-16.13,49.07,7.42,69.98c5.21,4.63,17.47,6.76,11.98,15.16c-5.8,8.86-16.4,15.66-26.31,20.45
				c-11.07,5.35-10.76-2.87-11.14-11.67c-0.8-18.72-14.01-11.78-21.2-6.75c-19.46,13.59-39.63,27.2-55.57,44.46
				c-11.87,12.86-14.81,33.65-4.52,48.81c7.87,11.59,26.36,9.06,33.42-1.44c24.57-36.56,68.85-43.1,100.42-69.17
				c17.57-14.51,13.13-44.41,41.81-50.55c6.52-1.4,68.57,23.07,23.69-29.28c-7.86-9.16,9.19-25.84,21.5-24.19
				c52.89,7.1,94.31-33.51,145.62-32.74c10.36,0.16,34.58,1.54,22.92-24.04c-1.91-4.18-15.67-7.19-5.57-11.76
				c14.43-6.52,31.58-7.38,47.72-9.42c2.31-0.29,8.6,7.56,7.81,9.68c-14.77,39.38,1.12,30.06,23.06,15.47
				c11.41-7.58,23.29-4.02,27.09,9.74c5.31,19.22,18.24,25.57,36.09,27.24c4.77,0.44,14.03-6.34,13.26,4.8
				c-0.2,2.94-10.74,8.1-15.73,7.29c-28.36-4.63-56.27-12.42-84.73-15.85c-21.04-2.53-51.23-4.5-58.64,14.42
				c-7.14,18.23,22.62,30.95,34.31,47.5c6.96,9.85,34.39,7.05,18.03,31.51c-14.43,21.57-30.41,17.62-48.59,6.84
				c-25.98-15.41-52.06-30.65-78.36-45.49c-3.87-2.18-9.18-1.81-13.82-2.62c0.58,4.34,0.3,12.14,1.86,12.53
				c35.68,8.85,41.57,58.8,84.87,59.74c12.12,0.26,48.21,14.83,32.14,27.68c-25.95,20.76-5.26,15.83,4.61,20.16
				c10.59,4.64,21.24,8.93,21.72,23.03c1.33,39.01,39.62,38.6,55.76,34.33c32.56-8.61,69.72-39.88,61.46-70.57
				c-6.94-25.79,6.04-34.11,9.53-50.91c5.65-27.2,34.7-20.45,45.46-37.85c3.85-6.23,3.13-21.53,16.68-9.59
				c6.9,6.08,10.02,13.74,4.25,23.54c-5.31,9.02-27.27,14.25-17.57,22.76c10.5,9.21,25.04-7.77,33.48-17.37
				c19.08-21.69,52.58-32.27,53.84-69.15c0.13-3.84,11.24-29.7,30.13-12.36c22.09-28.15,34.61,37.13,57.03,5.84l-0.84,0.72
				c30.5-4.6,43.23-59.98,86.11-29.85c12.02,8.45,25.26,15.17,37.94,22.68c2.98-16.78-14.72-21.36-19.5-33.37
				c-1.58-3.97-0.93-9.78,0.75-13.92c9.17-22.64,182.7-115.6,203.11-103.56c18.93,11.16,32.7,6.84,49.72,3.87
				c5.53-0.97,14.53,0.69,17.27,4.51c5.7,7.93-4.67,8.83-8.6,12.68c-11.93,11.68-5.37,29.81-1.2,36.94
				c5.78,9.86,19.88-2.92,29.04-7.96c33.16-18.25,76.57-6.16,79.76,17.15c4.09,29.88,12.46,21.87,29.51,22.69
				c19.68,0.95,44.05-6.73,53.57,22.64c8.68,26.78,19.96,51.88-3.85,77.53c-8.69,9.37-31.9,22.48-13.88,35.21
				c17.79,12.57,34.18-8.4,39.19-24.3c13.43-42.59,44.18-46.09,80.32-41.57c35.72,4.47,47.65,45.35,76.92,54.21
				c36.68,11.1,33.4,34.5,36.86,62.58c7.13,57.98-22.48,101.49-48.82,147.28c-5.71,9.92-19.4,30.15-8.4,31.78
				c41.59,6.16,14.93,27.67,9.04,37.92c-68.77,119.73-131.38,244.14-212.08,355.38c-39.98,55.1-40.59,96.39-18.77,150.02
				c3.04,7.46,4.9,15.4,7.3,23.12c-14.22-20.08-22.76-42.19-32.5-63.76c-3.93-8.7-7.73-21.67-20.27-18.49
				c-7.01,1.78-13.26,10.52-17.78,17.47c-48.89,75.16-100.61,148.24-163.92,212.05c-48.73,49.12-46.93,80.38,4.61,125.71
				c37.28,32.79,69.47,68.86,76.4,124.19c2.13,17-3.51,54.6,25.98,58.86c70.17,10.12,76.05,62.27,77.72,114.23
				c1.67,52.22-3.5,104.76-7.3,157.04c-4.88,67.12-66.56,73.15-110.11,91.98c-36.74,15.88-21.77-32.83-37.68-46.67
				c-18.08-15.73,0.95-23.98,7.81-33.56c13.3-18.58,20.75-40.04-1.66-52.39c-34.1-18.79-70.74-22.04-101.91,9.77
				c-5.68,5.8-6.68,20.8-17.36,15.97c-13.19-5.97-2.88-16.93-0.18-26.01c3.21-10.8,18.65-33.61-9.03-25.23
				c-41.9,12.68-79.69,17.47-121.53-0.48c-19.92-8.55-81.47,49.37-77.98,68.11c10.02,53.83-25.11,111.4-77.81,127.49
				c-77.41,23.64-132.09,148.91-87.05,216.93c75.31,113.73,92.86,232.51,55.01,361.74c-8.6,29.37-0.69,57.39,10.66,84.61
				c6.08,14.59,15.27,24.16,32.01,15.33c40.71-21.48,44.57,4.45,46.47,34.86c0.93,14.89,2.27,30.21,6.67,44.32
				c4.83,15.46,11.96,33.13,31.31,33.85c22.64,0.83,20.97-20.55,26.99-35.02c9.89-23.77,16.75-59.86,47.3-55.46
				c51.52,7.42,90.19-10.29,129-38.86c40.04-29.48,77.28-14.75,100.16,21.42c14.38,22.73,31.53,37.91,53.65,42.4
				c33.2,6.74,57.53,22.76,78.28,47.88c27.03,32.72,59.19,35.42,93.97,13.07c38.72-24.88,76.48-26.91,116.9-2.1
				c16.64,10.21,38.19,12.05,56.84,19.4c77.72,30.59,157.85-6.94,235.97,9.03c11.45,2.34,29.62-0.59,26.87,18.01
				c-2.35,15.93-18.42,14.56-31.06,12.77c-110.08-15.59-216.82,7.12-319.32,40.36c-76.79,24.9-154.84,12.21-231.12,27.25
				c-19.17,3.78-47.92-0.47-60.91-12.9c-58.59-56.09-44.83,1.97-51.06,29.89c-9.18,41.13,3.88,64.18,48.73,69.98
				c18.65,2.41,37.46,14.75,52.98,26.73c13.83,10.68,18.61,26.94,1.7,41.94c-29.03,25.76-54.15,58.48-87.32,76.41
				c-53.63,28.99-21.1,37.31,6.08,53.45c24.53,14.56,48.38,111.05,30.41,121.02c-29.94,16.6-21.62,34.12-8.13,55.69
				c26.51,42.36,33.67,92.37,36.65,139.11c3.88,60.75,24.19,113.14,54.97,161.77c24.57,38.81,80.19,31.39,101.18-10.19
				c5.67-11.23,7.85-16.87,24.11-14.11c53.09,9.03,97.73-3.96,121.72-58.54c8.29-18.87,18.94-38.18,44.71-30.66
				c22.7,6.62,23.99,25.62,22.99,46c-0.88,17.91-10.8,40.93,10.77,51.42c20.1,9.77,39.71-4.19,55.47-15.69
				c13.77-10.05,25.91-24.29,34.51-39.15c39.57-68.44,28.31-147.52,42.13-221.34c6.06-32.38-19.15-58.24-58.09-60.61
				c-47.87-2.9-95.25-3.44-141.32,13.11c-8.75,3.14-22.89,10.65-26.63-0.94c-3.61-11.18,12.18-14.99,21.08-16.3
				c55.59-8.19,96.44-41.04,134.91-78.26c36.39-35.2,77.68-63.16,121.46-88.72c162.71-95,323.94-190.32,424.19-361.36
				c32.59-55.6,67.66-110.92,102.73-165.64c5.91-9.22,21.31-2.86,20.92-20.88c-1.48-67.44,54.44-117.98,53.19-189.08
				c-0.8-45.66,28.45-91.26,40.38-137.88c13.62-53.23,12.35-108.59,26.76-162.85c25.95-97.74,46.97-197.4,14.96-300.2
				c-13.61-43.71-49.43-81.12-43.73-129.2c4.29-36.2-51.79-93.81,32.99-105.89c3.85-0.55,10.52-15.32,8.41-18.48
				c-34.21-51.15-7.59-99.45,0.82-150.95c17.81-108.98,5.37-216.48-27.47-323.52c-22.42-73.09-47.56-146.63-76.53-215.48
				c-18.82-44.74-31.88-96.39-62.64-137.81c-18.41-24.79-20.53-53.65-7.71-82.64l-0.75,0.71c5.31-2.82,11.93-4.47,15.65-8.69
				c7.38-8.38-0.64-30.32,17.56-26.98c8.36,1.54,13.97,18.97,20.48,29.4c5.61,8.99,11.09,28.46,21.84,18.77
				c27.98-25.22,45.63-3.59,65.42,9.02c23.77,15.14,46.65,18.2,69.04-1.1c43.95-37.88,76.64-14.77,104.2,21.01
				c23.93,31.06,43.12,65.2,39.34,107.38c-1.07,11.95-4.38,27.96,11.91,31.96c16.84,4.14,24.51-9.25,29.32-23.04
				c4.03-11.54,3.64-27.12,20.22-28.05c17.2-0.96,24.26,14.31,28.24,26.55c11.35,34.91,17.19,83.24,34.96,102.23
				c38.94,41.61,53.08,94.11,67.5,139.15c54.54,170.4,126.58,337.91,130.29,520.87c0.77,37.75,13.64,74.9,32.35,97.27
				c35.31,42.21-30.76,37.62-22.72,73.94c10.43,47.11,0.3,47.26,45.98,65.7c54.42,21.97,108.12,35.73,167.56,25.62
				c-22.44,7.25-53.3,14.17-47.91,36.99c15.23,64.45-20.96,80.19-70.46,90.58c-10.26,2.15-19.25,10.29-28.83,15.67
				c-1.47-5.78-3.91-11.51-4.23-17.35c-0.91-16.47,12.55-18.55,23.71-24.68c14.43-7.93,40.65-3.47,41.28-26.17
				c0.66-23.99,2.06-56.4-30.54-61.14c-34.03-4.94-66.39-55.66-103.98-6.75c-2.65,3.44-8.15,7.49-11.46,6.84
				c-3.46-0.68-7.78-6.41-8.38-10.44c-1.83-12.14,1.75-25.65-10.63-34.51c6.28-11.37,21.21-23.11,8.9-35.67
				c-6.79-6.93-1.34-31.22-18.3-20.31c-9.79,6.29-13.89,26.08-14.85,40.18c-1.01,14.81,14.26,13.85,25.14,15.1
				c-78.31,38.23-101.75,80.25-41.32,141.15c17.99,18.13,47.21-7.28,65.54,14.3c3.85,4.53,8.04,8.77,12.08,13.14
				c-3.66,1.95-9.32,6.51-10.7,5.46c-36.55-27.81-41.29,6.45-51.93,26.93c-7.08,13.63-14.43,22.7-31.95,19.1
				c-7.75-1.59-16.49,1.62-24.78,2.64c3.48,13.13,15.38,10.76,24.53,13c10.99,2.7,22.81,3.03,33.13,7.21
				c14.52,5.87,35.49,9.85,36.87,27.05c1.42,17.64-19.47,21.42-33.16,25.43c-23.44,6.86-47.72,10.96-71.8,15.47
				c-9.61,1.8-25.12-0.02-24.12,11.39c1.21,13.86,15.68,6.11,25.01,5.96c44.23-0.72,85.2-0.73,93.37,60.17
				c3.89,29.01,37.45,36.56,62.69,38.41c26.01,1.92,37.13-20.35,34.47-43.86c-2.58-22.83,11.74-15.38,20.83-13.91
				c12.61,2.04,22.13,9.88,13.24,23.9c-19.99,31.51,3.69,29.65,21.12,25.42c23.27-5.64,51.34-4.26,64.81-31.26
				c6.58-13.19,14.94-12.36,22.92-1.91c19.87,26.02,49.45,32.14,78.55,39.47l-0.87-0.73c17.41,16.52,47.15,13.61,59.67,37.85
				c-23.77,3.84-43.75-15.86-64.51-14.13c-21.03,1.76-65.4-31.98-60.9,30.37c0.84,11.62-22.67,27.5-39.62,17.91
				c-21.63-12.24,2.45-21.22,6.51-31.73c2.58-6.69,4.55-13.62,6.79-20.44c-12.86-4.02-25.77-11.52-38.57-11.34
				c-28.38,0.4-49.06,29.76-80.79,23.13c-7.84-1.64-5.56,5.34-1.12,9.23c18.53,16.21,37.01,32.47,55.59,48.62
				c8.75,7.61,28,4.96,25.64,22.64c-0.96,7.24-8.51,16.2-15.4,19.52c-14.41,6.94-22.72-3.42-30.19-14.8
				c-3.91-5.95-10.34-13.26-18.5-7.64c-4.58,3.16-8.57,10.45-8.57,15.88c0,3.99,6.19,9.88,10.86,11.66
				c34.86,13.25,70.39,22.97,105.01,39.05c57.85,26.86,118-3.5,176.42-16.45c10.68-2.37,18.41-8.88,15.03-21.8
				c-17.18-65.68-4.73-111.43,74.91-113.91c9.55-0.3,18.94-6.46,28.36-10.02c15.63-5.91,40.67-4.72,37.91-28.49
				c-2.93-25.19-1.83-58.73-27.7-70.91c-87.5-41.23-175.51-64.79-275.55-31.26c-35.38,11.86,6.78,73.13-39.32,47.92
				c-19.24-10.52-28.61-42.56-52.35-61.36c-30.55-24.19-65.89,23.03-93.84-16.96c-7.87-11.26-29.26-20.94-36.71-38.87
				c-2.09-5.02-0.49-16.99,0.77-17.18c21.38-3.36,4.53,24.63,21.26,26.56c6.12,0.71,11.97,3.58,18.03,5.11
				c72.56,18.3,144.44,41.51,221.13,27.23c21.27-3.96,52.83,4.73,56.69-23.89c4.02-29.8,1.2-64.59-38.92-76.03
				c-20.63-5.88-31.11-20.23-32.27-41.53l-0.26,0.65c37.9,43.6,85.37,28.77,131.98,22.44c26.39-3.58,57.2-3.29,63.2-35.06
				c5.36-28.38-7.46-53.94-37.28-66.27l-0.78,0.7c19.71,0.92,39.43,1.84,59.14,2.75c-30.15,58.66,27.65,69.33,52.99,97.88
				c2.46,2.77,3.09,11.82,2.01,12.31c-6.35,2.87-15.61,7.79-19.98,5.26c-42.59-24.7-84.24-15.37-127.55-1.65
				c-18.4,5.83-33.73,8.88-34.27,31.84c-0.52,22.23,0.72,44.35,23.39,55.6c84.83,42.07,172.46,61.65,265.97,30.53
				c19.12-6.36,28.28-14.06,16.16-35.33c-9.18-16.09-12.36-35.74-22.2-51.28c-8-12.62-7.75-15.83,6.66-13.02
				c31.42,6.14,59.09-10.5,88.95-13.36c16.26-1.55,36.66-0.37,41.69-18.63c4.99-18.11,1.65-36.86-22.85-44.94
				c-6.33-2.09-9.77-19.08-10.71-29.57c-0.81-9.06,9.69-7.37,14.37-5.37c9.58,4.09,22.7-5.06,29.5,9.96
				c30.86,68.07,19.68,90.32-53.05,103.23c-2.48,0.44-5.04,0.45-7.47,1.05c-20.2,5-53.09-1.46-45.38,33.95
				c6.04,27.75,13.84,60.93,57.44,55.98c15.33-1.74,35.5,0.11,46.73,8.9c30.76,24.08,63.13,39.37,102.47,40.46
				c6.5,0.18,23.33,2.34,15.32,14.05c-32.3,47.18,6.77,71.95,29.34,102.16c2.91,3.89,6.6,7.19,9.93,10.77
				c-2.95,1.48-6.55,4.88-8.76,4.14c-42.35-14.27-76.82,20.17-117.55,18.77c-16.55-0.57-44.14-2.55-41.82,25.34
				c2.55,30.66,16.78,62.51,46.88,72.05c23.48,7.44,22.5-24.43,31.82-39.28l-0.76-0.85c29.98,28.58,49.09,70.54,96.55,77.68
				c7.38,1.11,18.22,6.05,1.69,10.81c-29.78,8.56-12.11,12.13,0.9,18.63c59.45,29.74,112.13-2.28,166.1-18.66
				c12.91-3.92,6.7-18.73,5.73-30.06c-5.18-60.91-51-83.77-97.45-106.4l-0.33,1c31.04-11.05,60.43,18.44,92.28,3.26
				c9.83-4.68,6.96,7.5,7.61,12.07c13.12,92.09,63.53,143.3,155.46,157.03c7.75,1.16,18.68,6.89,18.15-9.43
				c-0.25-7.73-18.71-23.96-1.5-20.64c18.73,3.61,46.9-17.2,55.4,8.3c16.94,50.8,43.68,46.14,81.75,25.33
				c19.19-10.49,50.59-12.36,48.9-37.69c-2.03-30.47-14.84-66.87-46.23-77.57c-67.74-23.1-137.79-39.67-207.38-56.96
				c-12.29-3.05-27.95,0.97-40.21,6.11c-12.48,5.24-29.64,19.88-35.02,4.66c-5.62-15.89,18.46-21.42,31.44-22.11
				c40.81-2.19,47.35-18.51,36.29-56.75c-12.62-43.67-51.53-52.54-81.87-76.44c54.29,25.93,103.32,2.83,154.78-7.47
				c39.53-7.91,36.42-24.89,25.98-51.67l-0.56,0.76c29.95,29.57,63.9,51.54,106.22,59.64c9.97,1.91,29.13,3.93,26.32,15.09
				c-3.28,13.04-20.2,4.66-29.33,0.9c-61.18-25.22-120.47-10.52-179.84,6.55c-11.19,3.22-25.76,7.53-17.72,21.96
				c15.54,27.91,19.94,68.07,54.24,78.3c61.11,18.23,120.95,47.11,185.5,46.44c35.86-0.37,79.89-5.79,103.48-33.98
				c17.2-20.56-14.14-46.99-24.13-70.64c-7.96-18.83-31.69-16.89-47.75-33.5c29.63-1.26,65.52,11.19,69.04-29.43
				c5.18-59.75-43.95-114.72-105.68-124.46c-34.18-5.39-67.5-3.96-100.34,8.21c-7.22,2.68-20.69,8.39-22.96-2.26
				c-2.53-11.88,11.81-9.51,19.66-10.75c22.39-3.53,45.44-12.13,49.01-34.61c3.75-23.62-14.32-41.6-35.5-53.07
				c-31.35-16.99-58.01-31.32-96.06-1.88c-14.8,11.45-27-57.12-70.04-46.75c-10.96,2.64-22.36,3.61-33.61,4.91
				c-20.69,2.4-41.42,4.47-62.13,6.67c3.64-8.93,8.61-12.17,14-13.26c37.52-7.6,68.49-11.98,56.47-69.22
				c-5.16-24.58,30.1-58.39,48.94-86.71c4.46-6.71,13.14,1.07,18.96,6.39c9,8.24,14.92,31.31,29.78,17.41
				c9.1-8.51-7.25-24.82-15.44-35.08c-6.54-8.19-17.14-13.96-26.99-18.54c-47.73-22.19-100.26-20.4-150.75-28.67
				c-29.39-4.81-63.6,0.24-80.86,19.48c-15.42,17.19,12.23,38.33,26.54,54.86c5.55,6.4,7.59,13.03,0.73,19.85
				c-8.05,8.01-14.88,5.63-22.74-1.37c-27.41-24.42-24.81-69.58-61.53-88.13c-4.91-2.48,3.35-7.99,8.09-7.26
				c30.41,4.68,53.93-22.3,87.02-15.15c26.47,5.72,43.77-9.99,29-41.77c-4.18-8.98-16.55-23.22-3.01-28.79
				c12.13-4.98,15.32,13.43,19.71,22.97c17.74,38.62,50.84,47.2,89.21,50.87c37.45,3.59,68.71,35.34,109.8,26.79
				c0.6-0.13,3.98,7.28,4.04,11.2c0.72,47.8,102.97,114.86,146.43,95.77c2.2-0.97,4.74-2.06,6.12-3.86
				c17.43-22.69-10.26-105.05-39.08-111.4c-38.48-8.49-58.45-39.98-60.14-69.51c-1.59-27.95,37.28-17.84,58.18-24.63
				c17.11-5.56,48.16-4.03,11.45-29.7c12.67-14.18-44.88-49.02,14.8-50.07c5.65-0.1,11.17-8.32,16.75-12.77
				c-4.44-5.32-8.02-11.83-13.46-15.77c-24.69-17.85-62.62-16.01-75.73-51.14l-0.78,0.58c21.9,11.37,32.64-20.06,43.2-16.81
				c64.72,19.95,51.83-37.61,50.8-59.12c-2.92-60.79-2.74-65.01,57.36-40.8c47.67,19.21,93.61,42.69,140.84,63.08
				c17.37,7.49,36.35,7.08,45.53-12.9c8.3-18.06,2-34.66-14.9-45.78c-11.53-7.58-23.92-13.85-35.56-21.27
				c-4.72-3.01-18.49-10.6-2.5-12.25c38.51-3.97,80.29,5.74,106.59-34.76c0,446.25,0,892.49,0,1338.74
				c-17.51,8.94-37.41,6.42-39.61-12.42c-6.88-58.91-51.22-47.47-86.9-48.61c-18.17-0.58-32.07-3.58-42.93-17.39
				c-12.98-16.5-29.07-24.22-49.51-17.6c-5.02,1.63-12.63,11.23-11.76,12.65c8.96,14.48,23.62,20.41,40,22.31
				c17.18,2,19.92,13.67,17.64,27.41c-1.65,9.93-10.24,26.24-16.03,21.81c-39.47-30.21-27.12,13.48-36.48,24.58
				c-6.68,7.91-14.23,19.82-23.32,15.55c-15.36-7.21,1.7-11.98,4.64-17.88c4.32-8.69,5.5-17.98-3.5-23.42
				c-9.77-5.91-17.35,1.86-21.84,9.18c-9.65,15.74-23.45,33.66-9.87,51.23c9.85,12.74,24.23,12.33,42.94,3.62
				c18.47-8.6,45.3,3.46,48.47-32.43c0.76-8.59,22.34-6.91,32.88,2.79c6.18,5.69,10.6,16.27,17.34,17.76
				c13.35,2.95,37.72-10.22,38.08,9.03c0.39,20.52-26.96,7.99-40.8,14.29c-13.11,5.97-27.86,11.8-20.68,29.54
				c5.26,12.99,22.37,20.64,30.95,10.74c18.59-21.44,30.24-8.28,46.91,0.96c21.91,12.15,40.52-6.83,60.24-12.9
				c7.3-2.25,4.18-10.62-0.39-15.82c-6.38-7.27-18.07-14.57-4.9-24.24c12.29-9.01,20.64,1.39,28.41,9.8c0,22.69,0,45.38,0,68.07
				c-13.63-7.12-32-17.26-31.52,9.01c0.71,39.3-32.63,90.12,31.52,112c0,393.3,0,786.6,0,1179.9
				c-16.73,14.22-35.97,20.96-57.97,19.22c-5.84-0.46-11.63-1.42-17.45-2.15c1.52-5.43,3.09-10.85,4.55-16.3
				c2.09-7.82,19.29-9.92,11.11-19.05c-4.17-4.65-18.32-0.37-27.87-0.22c1.35-9.78,2.02-19.6,4.07-29.11
				c1.27-5.9,7.29-11.71,6.59-16.94c-3.03-22.68-16.75-4.01-17.58-1.65c-3.94,11.21-18.76,23.29-0.56,35.41
				c3.65,2.43,5.29,7.87,7.85,11.93c-5.86,4.09-12.8,7.23-17.39,12.45c-15.73,17.88-28.56,41.21-18.37,62.23
				c10.5,21.67,30.05,17.9,48.34,0.04c8.23-8.03,29.41-14.79,37.68-2.81c21.59,31.29,25.81-0.96,37-7.65c0,25.21,0,50.42,0,75.63
				c-34.7,1.22-42.74,26.14-36.44,51.58c6,24.22,23.85,1.45,36.44,1.37c0,39.08-5.05,78.99,1.19,117.04
				c9.18,55.92-17.12,64.05-61.7,56.92c0.17-51.95,1.34-104.74-76.61-90.67c-3.8-11.06,25.08-7.77,10.4-23.54
				c-10.13-10.88-19.88-5.33-29.7,0.83c-13.62,8.53-27.41,24.52-17.58,35.54c13.96,15.64,22.09-15.77,37.79-13.69
				c4.82,7.96,9.65,15.92,14.47,23.87c-40.47,4.4-25.86,57.47-59.78,67.66c-63.03,0-126.06,0-189.09,0
				c-12.42-23.79-29.59-31.09-53.38-15.38l0.84,0.77c-3.21-25.78-20.48-39.57-43.6-36.05c-25.65,3.9-8.11,25.92-9.98,39.91
				c-2.44,3.58-4.89,7.17-7.33,10.75c-355.48,0-710.97,0-1066.45,0c6.7-26.23-1.77-58.75,33.98-72.71
				c9.34-3.65,9.46-20.57,2.41-27.11c-39.81-36.94-4.16-56.63,17.53-77.98c42.66-42,16.73-86.45,6.34-130.18
				c-8.04-33.87-31.91-48.66-65.7-51.32c-35.4-2.8-38.06,35.29-62.64,49.34c-37.76,21.61-22.95,118.82,15.19,141.42
				c3.25,1.93,5.27,5.94,7.85,8.99c-4.33,2.14-9.35,6.94-12.87,6.01c-41.64-10.96-35.43,16.9-37.83,42.46
				c-3.5,37.26-11.59,74.08-17.72,111.09c-7.56,0-15.13,0-22.69,0c1.47-36.15,3.5-72.29,4.07-108.45
				c0.19-11.67,7.46-33.58-5.03-32.71c-11.95,0.83-33.7,9.12-34.9,32.75c-1.84,36.2-6.22,72.28-9.53,108.41
				c-108.41,0-216.82,0-325.23,0c-0.49-6.27,0.04-12.83-1.66-18.76c-7.02-24.39,15.79-71.33-15.63-69.77
				c-32,1.59-45.88,47.07-44.18,84.88c0.05,1.23,0.63,2.43,0.96,3.64c-179,0-358.01,0-537.01,0c-4.92-8.66-9.83-17.33-14.75-25.99
				c-5.53-11.19-4.32-34.75-20.49-28.97c-21.71,7.75-30.31,30.32-25.27,54.96c-52.94,0-105.89,0-158.83,0
				c1.06-10.03,2.02-20.07,3.2-30.08c9.64-82.03,84.43-112.63,135.71-158.12c11.61-10.3,74.77-9.41,111.72,9.31
				c4.63,2.35,11.44,0.38,17.24,0.41c-0.56-2.29-0.79-4.73-1.73-6.86c-9.79-22.07-92.12-53.05-114.22-42.62
				c-13.8,6.52-22.8,6.72-19.12-12.3c2.04-10.58,14.63-24.58,3.76-30.7c-13.79-7.77-18.14,12.57-27.53,19.43
				c-17.23,12.58-33.36,26.75-51.04,38.62c-38.11,25.59-86.61,37.42-108.99,83.77c-1.52,3.15-7.76,4.02-11.8,5.94
				c-2.33-6.93-7.76-14.48-6.52-20.69c14.54-72.72-46.86-70.17-85.89-80.19c-46.99-12.06-70.63,14.8-64.05,64.13
				c4.49,33.65,11.78,67.15,13.15,100.91c1.08,26.6,8.19,46.52,32.15,59.04c-65.55,0-131.1,0-196.65,0c1.8-3.3,3.42-6.7,5.41-9.88
				c31.98-51.03,64.71-96.73,120.22-22.06c5.54,7.45,16.78,15.6,26.02,7.46c4.46-3.93,2.91-15.97,2.25-24.18
				c-2.63-32.53-5.74-65.02-9.22-97.47c-1.07-9.93-2.47-21-16.74-20.62c-43.72,1.18-88.14-7.41-129.78,16.22
				c-22.08,12.53-43.71,10.63-42.76-22.88c0.36-12.73-0.81-19.96-14.62-18.96c-13.29,0.96-15.98,11.06-15.36,21.77
				c1.23,21.35,5.03,42.68,4.68,63.97c-0.38,23.14,15.58,44.48,6.46,68.19c-20.75-19.6-14.55-47.11-18.14-70.63
				c-13.59-89.13-12.23-89.34-86.13-33.53c3.79-7.7,7.38-15.47,11.37-23.04c5.39-10.22,24.39-21.02,15.17-29.28
				c-12.51-11.2-21.26,9.08-31.47,16.15c9.1-22.08,19.45-43.73,27.04-66.31c18.1-53.84-24.82-119.52-81.37-124.48
				c-28.73-2.52-54.78,6.04-61.45,37.16c-6.24,29.1,12.88,40.35,39.91,41.01c10.99,0.26,15.17,7.74,4.53,12.28
				c-20.86,8.9-39.15,10.08-58.51,33.5c-20.02,24.22-72.69,30.41-113.42,11.63c-6.57-3.03-13.47-5.34-20.22-7.98
				c3.16,7.59,5.2,15.91,9.64,22.65c52.48,79.56,150.83,94.13,256.02,38.25c-5.7,13.25-46.13,29.73,3.52,37.82
				c-15.88,20.36-54.25,33.56-21.91,69.36c2.07,2.29,1.69,6.79,2.44,10.27c-4.6-0.81-9.64-0.69-13.74-2.57
				c-66.73-30.66-143.79-38.75-200.39-91.86c-5.46-5.12-12.12-16.75-21.09-9.17c-3.03,2.56,1.31,15.99,4.58,23.44
				c10.22,23.29,7.02,27.44,0.5,21.99c-36.41-30.39-51.44,13.99-77.39,21.87c7.25-14.31,13.69-27,20.12-39.69
				c-16.44-2.91-23.29,12.21-34.3,19.03c-30.19,18.71-54.66,2.97-80.25-10.22c-8.58-4.42-15.29-20.46-28.22-5.59
				c-17.25,19.85-31.97,5.26-49.38-1.89c-27.48-11.28,4.64-33.91-11.42-45.77l-0.66,0.44c7.89-2.79,22.42-5.06,22.68-8.44
				c3.65-46.74,24.54-85.62,48.25-124.85c9.8-16.22-15.1-28.46-25.77-36.43c-13.79-10.31-9.35,11.11-13.83,17.44
				c-25.02,35.3-54.23,68.61-101.11,51.85c-57.79-20.66-105.01-69.57-173.28-63.23c-11.39,1.06-22.68-14.3-34.92-3.82
				c-2.99,2.55-3.12,13.33-0.28,16.92c9.79,12.36,22.44,18.61,39.67,15.13c49.05-9.9,64.32,22.34,73.15,61.05
				c3.54,15.54-0.58,28.61-18.72,30.3c-15.86,1.48-27-6.03-28.01-23.3c-0.59-10.12,7.97-26.1-11.68-24.01
				c-14.49,1.54-23.25,17.97-16.58,28.58c29,46.14-2.31,102.81,28.17,148.41c5.49,8.21,3.61,21.35,5.14,32.21
				c-15.67-0.51-13.44-15.69-18.81-24.11c-14.12-22.11-28.97-42.77-58.97-38.88c-22.9,2.97-33.31,20.31-39.75,40.67
				c-3.5,11.05-3.29,23.72,10.59,21.77C680.75,3883.32,631.14,3933.35,628.78,3961.43z M4590.91,3900.25
				c-9.83,10.25-32.94,2.73-33.14,22.52c-0.03,3.57,24.85,13.57,32.76,9.63c13.4-6.67,3.74-21.56-0.23-32.83
				c17.56,1.41,37.6,12.54,48.88-11.31c1.68-3.55-0.73-13.15-1.74-13.23c-18.94-1.39-31.36,11.01-44.2,22.31
				C4592.32,3898.15,4591.68,3899.27,4590.91,3900.25z M3260.48,2259.06c11.39,15.77,20.47,33.87,40.59,40.82
				c0.62,0.21,4.13-3.95,3.73-5.35c-6.41-22.57-27.58-26.31-45.05-34.78c-17.89-7.7-36.85-29.78-53.68-0.88
				c-12.39,21.28,12.34,20.51,21.08,24.91C3251.06,2295.81,3240.91,2256.58,3260.48,2259.06z M4674.68,3408.97
				c0.88,7.29,2.42,14.56,2.49,21.86c0.1,9.6-16.6,23.86,0.02,26.88c9.2,1.67,30.29-15.47,31.39-25.7
				c2.24-20.81-19.54-19.72-34.77-22.22c-14.26-18.96-33.64-27.35-56.83-27.61c10.1-9.33,20.15-18.26,21.86-33.55
				c2.09-18.64,3.76-38.31,28.49-42.28c5.09-0.82,14.25,3.06,13.06-6.85c-0.26-2.16-11.09-5.11-16.5-4.25
				c-53.19,8.44-44.09,50.88-46.69,86.86c-23.91,37.07,24.05,31.35,32.77,50.48C4654.37,3442.26,4665.96,3417.69,4674.68,3408.97z
				 M4226.38,2538.54c-21.05-21.23-46.97-37.66-59.07-67.5c-4.64-11.45-8.1-2.34-13.43,4.27c-29.36,36.43-11.24,56.64,19.74,79.42
				c13.14,9.66,17.91,40.9,35.56,37.49c17.67-3.41,9.69-32.92,18.56-49.01C4226.95,2541.62,4226.49,2540.06,4226.38,2538.54z
				 M4571.35,1186.04c-19.61,23.36-46.66,10.44-70.2,14.85c-20.16,3.77-50.58,8.28-29.47,38.16c16.6,23.49,53.69,47.02,74.87,33.42
				c22.2-14.25,42.7-50.73,23.8-87.15c13.71,1.79,27.38,4.26,41.15,5.17c14.71,0.97,27.16-3.73,19.62-21.49
				c-11.11-26.19-33.59-40.02-60.31-46.85c-11.81-3.02-24.96-0.9-28.78,11.54C4533.97,1159.98,4559.18,1169.81,4571.35,1186.04z
				 M558.59,3770.81c8.38-0.66,18.36-4.57,24.84-1.37c21.46,10.6,47.84,28.81,65.71,13.35c20.57-17.8-8.38-42.68-9.73-65.51
				c-0.15-2.46-1.2-4.86-1.7-7.31c-5.02-24.82-48.87-28.02-35.19-63.24c-31.71,13.19-14.59,45.53-25.88,67.22
				c-9.07,17.42-11.77,38.15-17.22,57.47c-16.35,12.8-19.8,28.45-9.14,46.28c1.5,2.51,10.22,3.99,10.45,3.51
				c6.76-14.27,5.99-29.05,1.43-43.79C561.43,3775.07,559.8,3773.01,558.59,3770.81z M4461.91,3846.6
				c17.73,6.08,35.42,12.29,53.2,18.23c38.91,12.99,72.64-14.06,71.48-39.82c-2.74-60.73,35.21-48.04,67.56-50.13
				c6.32-0.41,20.53,4.72,14.07-4.94c-22.59-33.76-55.93-46.88-98.11-47.68c-43.09-0.82,2.18,17.8-8.16,26.17
				c-25.39,20.55,22.25,29.62,10.09,49.96c-38.08-0.84-36.53-28.83-40.78-55.55c-1.86-11.7-13.5-22.54-22.7-31.77
				c-1.79-1.79-15.62,3.81-19.07,9.14c-9.63,14.89,12.81,18.03,12.81,25.19c-0.01,18.02,14.63,28.26,17.85,43.01
				c10.44,47.75,28.29,43.44,52.26,9.2c-9.21,32.45-11.26,73.7-64.77,42.07c-6.13-3.62-33.74-15.9-44.76,7.72
				c-27.12,7.65-1.73,28.14-9.9,39.97c-3.28,4.74-11.86,6.41-13.97,11.25c-6.26,14.31,4.36,14.63,13.32,12.01
				c13.86-4.04,19.26-16.67,18.88-29.04C4470.83,3869.84,4465.22,3858.25,4461.91,3846.6z M3159.47,2018.95
				c6.67,8.89,14.32,17.22,19.78,26.8c7.45,13.06,19.58,14.61,32.15,15.42c2.9,0.19,8.57-3.01,8.66-4.85
				c0.75-15.29-16.42-7.64-21.5-16.09c-4.44-7.39-14.56-17.19-12.57-21.53c5.73-12.54,14.5-0.85,21.39,1.96
				c12.83,5.24,15.39-1.71,16.89-11.85c1.7-11.45,4.65-23.84-11.13-27.19c-10.95-2.32-22.48-1.72-33.65-3.21
				c-50.36-6.72-54.43-49.32-56.97-84.77c-1.85-25.82,22.75-7.19,35.8-7.81c2.22-0.11,4.25-4.06,6.37-6.24
				c-2.73-2.33-5.08-5.84-8.23-6.82c-35.85-11.19-70.65-26.77-109.01-27.8c-5.33-0.14-10.76,3.24-16.14,4.99
				c39.15,0.77-1.25,65.95,48.3,59.69c6.39-0.81,14.44,7.96,20.73,13.42c1.03,0.89-2.57,10.86-4.9,11.24
				c-11.3,1.83-27.28-5.31-26.96,14.58c0.03,1.78,20.75,2.13,31.24,5.23c6.93,2.04,12.75,7.82,19.07,11.92
				c-21.39-10.52-29.71,2.21-33.99,19.96c-2.45,10.14,5.51,13.38,13.37,12.83c24.42-1.68,22.21-18.34,18.77-35.3
				c14.58,18.88,29.17,37.76,43.75,56.64c-21.51-4.05-44.54-9.57-48.56,22.28c-2.13,16.88,15.54,14.41,22.86,14.08
				C3158.01,2055.46,3169.16,2043.1,3159.47,2018.95z M4327.51,1473.69c-2.03-7.24-4.55-14.39-5.97-21.75
				c-2.79-14.48-1.12-31.72-20.03-36.43c-4.08-1.02-13.74,4.08-14.1,7.15c-2.07,17.64,6.74,31.45,20.36,41.62
				c5.78,4.32,13.63,5.86,20.54,8.67c22.55,15.52,60.75,30.09,70.7,10.67c32.02-62.55,30.23,5.95,32.33,8.89
				c21.41,29.95,51.98,20.24,79.39,19.95c12.38-0.13,37.16-8.87,30.58-19.17c-15.14-23.69,21.69-56.73-13.17-70.55
				c-39.39-15.62-80.86-26.24-121.87-37.41c-15.93-4.34-28.61,4.44-28.03,21.47C4379.53,1443.77,4355.87,1460.1,4327.51,1473.69z
				 M3799.33,1963.57c-7.64,16.76,10.14,20.16,15.67,30.01c9.15,16.29,8.51,50.49,31.21,43.38c29.27-9.16-22.74-12.49-8.04-27.6
				c3.47-3.56,7.53-6.66,10.45-10.61c16.12-21.85,8.62-31.32-16.71-31.83c-11.14-0.23-22.25-1.68-33.38-2.57
				c-8.45-10.58-26.67-17.42-12.46-36.36c4.21-5.6,3.43-14.92,14.74-12.99c8.62,1.47,20.08,22.46,25.48,0.27
				c4.19-17.22-11.03-27.55-26.69-30.98c-19.01-4.17-42.82,0.48-57.2-9.4c-55.95-38.41-113.93-36.87-174.47-17.81
				c-30.85,9.71-63.72,19.57-17.21,54.6c3.87,2.92,7.05,14.45,5.21,16.14c-43.31,39.68,2.01,52.71,23.22,63.03
				c34.52,16.8,40.85-15.03,48.75-38.97l-0.33,0.65c12.36,24.77,27.34,29.66,53.67,15.17c19.19-10.56,28.73-26.7,41.98-41.25
				c7.02-7.71,29.53-20.87,27.35-6.89c-4.67,29.82-10.81,64.7-40.59,84.09c-6.11,3.98-16.58,1.26-25.05,1.62
				c10.84,7.85,22.5,23.17,32.37,22.1c25.9-2.8,69.54,12.41,58.81-43.57C3773.5,1970.12,3788.95,1967.45,3799.33,1963.57z
				 M4426.11,2515.94l0.84,0.78c-8.23-46.72-54.89-47.82-84.61-60.84c-25.24-11.05-62.75,4.16-91.39,20.1
				c-3.14,1.75-0.97,13.15-1.15,20.08c-1.51,57.32,54.51,54.66,83.63,80.18c-11.69,11.27-39.55-5.3-40.51,21.83
				c-0.31,8.67,12.84,10.26,22.08,8.71c18.69-3.13,27.24-12.16,17.56-31.31c38.09-25.06,67.91,5.69,100.24,16.09
				c10.26,3.3,30.49-13.22,29.22,7.06c-1.42,22.71-22.64,10.98-36.48,10.36c-10.81-0.48-25.95-5.76-29.68,7.75
				c-2.94,10.65-1.24,27.55,5.64,34.97c17.63,19,38.98,37.14,66.73,14.6c13.02-10.57,28.06-5.09,33.15,3.69
				c21.57,37.22,33.85,3.63,44.66-6.57c9.03-8.51,9.6-25.58,24.04-31.69c-1.75,14.61-2.25,30.74,17.04,12.4
				c12.3-11.7,20.18-28.16,29.53-42.82c5.93-9.29,2.59-17.53-6.48-22.01c-8.62-4.26-18.81-9.92-27.34-8.61
				c-10.05,1.54-7.55,13.29-7.98,22.12c-0.66,13.4-3.46,26.69-5.35,40.02c-3.81-26.65-18.51-45.68-40.93-59.72
				c-28.36-17.76-39.39-38.29-10.45-65.8c4.85-4.61,12.56-21.18,5.1-18.58c-22.46,7.81-56.3-35.42-68.71,15.02
				C4451.54,2515.81,4438.49,2518.48,4426.11,2515.94z M4403.94,2126.03c2.45-11.02,7.73-23.38-8.25-28.39
				c-22.57-7.08-45.69-18.53-68.07-17.46c-10.78,0.51,0.44,23.9,2.94,36.72c1.46,7.5,5.44,16.57-4.07,19.28
				c-12.82,3.65-13.22-8.32-14.86-16.56c-3.53-17.71,3.2-39.75-18.67-49.86c-54.49-25.18-108.76-25.15-164.68-1.64
				c-26,10.93-31.18,26.36-24.3,50.13c14.36,49.62,103.56,114.45,156.23,114.47c7.11,0,13.47-6.84,14.19-6.73
				c27.37,4.27,65.01-48.56,82.56,15.02c4.85,17.55,24.19,6.1,36.79,6.15c7.68,0.03,16.5-6.67,9.75-15
				c-10.94-13.52-14.59-24.57,3.71-32.7c15.66-6.96,29.97-4.18,37.92,13.01c6.78,14.65,19.94,12.39,28.76,7.26
				c14.84-8.63,4.82-20.77-2.64-27.98c-10.01-9.67-12.91-19.82-13.79-33.23c-0.8-12.19-8.01-24.23-21.98-10.07
				c-8.32,8.43-15.21,12.99-25.6,5.11C4400.08,2146.15,4401.6,2136.13,4403.94,2126.03z M4328.13,2316.16
				c8.99-15.05-0.59-27.24-10.35-27.73c-54.11-2.75-90.04-58.2-145.54-51.06c-38.77,4.98-40.77,55.85-75.1,69.19
				c14.67,26.92-0.04,45.21-18.23,62.62c-7.03,6.73-10,15-4.51,23.75c2.14,3.41,7.17,5.01,10.88,7.44
				c17.1-27.2,45.25-9.95,67.59-16.37c8.84-2.54,19.64-21.27,27.29-3.35c5.15,12.05-11.23,17.82-20.6,23.18
				c-9.66,5.52-24.58,7.78-15.04,23.29c6.77,11.01,17.98,6.28,26.69,0.48c18.34-12.21,39.35-10.8,40.7,10.72
				c1.66,26.45,11.87,19.78,28,18.23c49.95-4.81,77.18-44.95,109.33-73.73c22.35-20-4.54-41.28-22.11-57.17
				C4325.58,2324.23,4327.81,2318.65,4328.13,2316.16z M2140.51,3391.37c-4.96,19.17-8.26,38.97-15.2,57.4
				c-16.81,44.65-69.93,69.64-98.16,39.1c-31.09-33.62-72.13-40.36-106.46-62.67c-7.65-4.97-13.61-19.5-24.78-11.31
				c-8.96,6.57,1.04,15.52,3.43,23.49c5.14,17.14-8.33,27.79-16.29,39.81c-1.92,2.9-12.56,3.98-15.58,1.5
				c-11.67-9.58-23.53-20.11-12.17-38.05c1.98-3.13-0.27-8.94-0.56-13.52c-4.5,0.91-9.72,0.65-13.4,2.91
				c-62.75,38.53-120.97,205.21-96.15,275.38c4.64,13.12,4.52,25.66,26.56,8.78c22.58-17.29,25.77-31.9,24.02-57.25
				c-2.9-41.93,3.87-89.49,35.47-113.64c16.6-12.68,48.36-18.8,72.21-32.01c35.82-19.84,73.6-41.78,101.88,12.22
				c6.63,12.66,20.26,7.02,31.06,6.78c18.61-0.42,34.72,4.79,33.61,25.93c-1.02,19.41-15.97,28.49-34.87,24.85
				c-12.75-2.45-24.01-5.5-22.39,12.64c1.45,16.27,14.13,20.97,27.73,16.67c35.79-11.33,59.31-36.93,74.45-70.31
				C2136.08,3493.4,2138.12,3442.65,2140.51,3391.37z M1501.2,3591.25c13.58-60.86,0.74-103.27-38.12-136.58
				c-5.04-4.32-12.87-5.38-19.41-7.95c-0.07,4.6-2.13,10.86,0.11,13.54c15.16,18.23,6.13,33.04-6.33,46.68
				c-3.26,3.57-14.01,6.3-15.47,4.55c-11.68-14.03-27.22-26.75-24.44-48.09c1.01-7.77,2.09-24.86-7.79-13.78
				c-33.65,37.7-94.92,30.17-120.58,82.36c-22.73,46.24-67.19,47.88-105.39,11.84c-26.88-25.36-34.36-60.41-48.43-92.28
				c-2.2-4.98-8.07-8.34-12.25-12.45c-2.28,3.6-7.22,7.94-6.46,10.69c19.45,70.12,35.9,141.41,61.05,209.48
				c11.46,31.03,43.17,46.39,78.08,23.01c4.49-3,8.93-10.25,8.65-15.26c-0.49-8.92-8.76-6.97-14.77-5.55
				c-21.32,5.06-40.48,3.67-38.74-24.17c1.62-25.98,18.45-37.99,44.63-32.1c15.31,3.44,24.45,1.8,33.34-14.14
				c28.72-51.52,85.06-64.52,134.94-31.71c19.85,13.05,35.25,30.71,63.43,15.9c13-6.83,24.71,3.58,19.04,20.99
				c-12.16,37.36,3.48,75.24-2.59,112.78c-0.97,6.04,4.06,18.61,6.74,18.73c13.43,0.6,10.56-11.15,10.62-19.28
				C1501.35,3665.7,1501.2,3622.93,1501.2,3591.25z M1106.67,3636.73c0.11-37.91,0.67-85.81-16.97-131.49
				c-5.35-13.85-10.29-29.07-27.91-11.69c-9.1,8.98-13.92,27.79-31.52,12.51c-12.84-11.15-36.24-18-19.92-43.74
				c2.76-4.36,0.52-17.22-3.21-19.3c-8.48-4.71-13.29,4.33-16.01,11.08c-9.48,23.5-20.63,45.79-38.75,64.05
				c-16.5,16.62-1.66,34.52,2.21,49.16c4.59,17.4,18.02-1.33,27.76-2.18c24.83-2.17,41.82,10.75,42.8,32.37
				c1.75,38.96,5.78,75.6,27.82,109.4c7.12,10.91,8.39,27.54-6.61,37.02c-13.83,8.74-26.26,3.54-37.66-6.32
				c-5.79-5.01-7.83-19.69-18.98-11.56c-5.97,4.35-10.52,15.17-10.2,22.85c1.69,40.24,17.75,72.42,61.62,77.17
				c43.97,4.76,70.27-17.89,70.83-62.94C1112.43,3724.31,1108.89,3685.46,1106.67,3636.73z M3930.01,1855.08
				c14.75-3.13,34.76,4.36,43.52-13.9c7.69-16.03-4.22-28.5-13.01-40.73c-22.83-31.76-62.8-38.86-93.53-56.59
				c-38.37-22.14-91.43-17.47-137.01-28.89c-35.03-8.77-50.86,20.91-76.54,30.08c29.82,19.72-0.22,67.06,35.51,81.73
				c39.87,16.36,82.64,25.64,122.59,41.84C3854.31,1885.95,3891.05,1866.05,3930.01,1855.08z M1933.47,3733.42
				c49.66-0.31,96.58-24.8,128.39-68.22c5.53-7.55,13.3-20.59,10.43-25.72c-6.42-11.48-18.61-2.37-26.23,1.95
				c-55.39,31.39-79.33-36.4-124.65-40.87c-9.3-0.92,11.31-14.29,20.9-19.26c15.56-8.06,27.8-18.86,23.27-38.28
				c-3.07-13.14-14.23-15.9-26.68-15.5c-57.99,1.88-114.55,64.18-113.06,124.81C1827,3699.4,1872.65,3733.8,1933.47,3733.42z
				 M1514.63,3655.24c7.64,23.94-13.77,49.84,10.45,60.26c20,8.61,35.14-14.8,52.01-24.74c14.05-8.29,30.08-23.59,44.38-12.48
				c25.39,19.73,43.98,46.05,83,22.59c10.86-6.53,25.28-4.2,26.89-21.98c2.6-28.73,5.86-57.4,8.45-86.13
				c0.43-4.82-1.09-9.82-1.7-14.73c-4.71,2.48-9.71,4.54-14.09,7.51c-90.48,61.41-122.19,54.26-171.25-38.91
				c-4.84-9.2-9.74-18.93-22.18-16.19c-11.26,2.48-10.23,13.4-10.73,21.72C1517.65,3588.35,1516.13,3624.57,1514.63,3655.24z
				 M3504.27,1996.16c-23.27,5.16-46.76,9.56-69.66,16.04c-5.51,1.56-9.07,10-13.53,15.28c4.7,3.25,9,8.33,14.16,9.45
				c47.67,10.35,26.3,44.21,20.28,68.3c-3.25,13.01-27.47,20.56-11.91,40.27c10.39,13.16,24.82,28.65,40.51,21.28
				c16.31-7.67,39.51-11.5,44.83-34.89c1.77-7.75-5.87-20.29,6.46-21.78c5.22-0.63,12.04,10.88,17.92,17.06
				c12.28,12.92,29.79,23.42,42.01,9.08c7.77-9.11,13.78-33.55-13.06-40.77c-19.25-5.18-16.8-23.44-11.23-34.33
				c10.95-21.43,15.47,4.48,23.93,6.28c16.32,3.47,33.6,8.08,45.73-4.79c7.07-7.51-4.76-16.5-11.66-20.3
				C3590.15,2020.89,3553.16,1993.33,3504.27,1996.16z M4743.57,2095.28c22.61-2.72,46.41,3.04,51.19-18.02
				c5.39-23.8-23.69-13.05-33.77-23.71c-4.89-5.17-17.4-6.35-18.57-11.23c-4.15-17.33-62.57-33.49-0.97-55.21
				c13.76-4.85,14.77-45.92-4.82-47.13c-29.01-1.8-52.33-19.34-82.31-17.69c-39.42,2.17-35.82,54.78-73.29,54.61
				c1.6,7.04,3.75,14.01,4.7,21.13c6.43,48.32,51.28,54.13,83.14,72.16C4692.79,2083.72,4721.79,2088.3,4743.57,2095.28z
				 M1130.88,3040.58c-3.2-27.65-8.62-48.19-21.95-65.63c-31.77-41.59-66.39-38.86-88.59,6.67
				c-12.47,25.57,21.58,133.11,46.06,147.47c12.16,7.13,24.5,5.18,29.59-5.32C1109.9,3095.12,1120.85,3065.03,1130.88,3040.58z
				 M4537.85,3351.28c-11.12,25.77-43.34,41.95-49.08,63.57c-4.71,17.76,10.77,53.16,39.25,67.37c7.49,3.74,24.88,8.07,10.95,20.01
				c-22.29,19.1-5.11,17.62,7.83,17.95c8.56,0.22,16.67,1.51,17.4,10.32c3.75,45.1,27.52,20.48,35.54,7.03
				c15.87-26.61,29.97-4.77,44.58-2.77c1.05,0.14-0.9,10.8,1.68,13.24c11.51,10.89,17.82,1.37,20.46-8.25
				c3.63-13.22-7.5-15.94-17.01-20.2c-29.87-13.4-39.82-52.82-75.81-58.55c10-23.52-18.37-41.86-8.15-66.3
				C4574.2,3373.91,4561.36,3361.87,4537.85,3351.28z M4368.08,3611c-38.29-7.81-23,34.98-41.85,48.08
				c-8.29,5.76-9.13,27.69,2.95,33.3c20.18,9.38,41.38,26.56,64.77,16.97c13.03-5.34,35.3-4.49,36.7-25.17
				c0.71-10.57-24.22-25.16,0.06-31.59c18.84-4.98,22.21,14.43,22.39,30.69c0.12,10.6,2.42,22.2,17.02,16.87
				c14.71-5.37,2.75-14.8,0.43-21.52C4454.04,3630.76,4426.41,3598.71,4368.08,3611z M393.52,687.17
				c-75.43,5.32-118.3,90.48-97.56,158.38c0.8,2.63,4.59,4.36,6.98,6.51c2.84-5.38,8.05-10.71,8.16-16.15
				c1-50.04,40.31-51.35,73.98-56.63c22.2-3.48,39.28-17.74,38.74-34.02c-0.96-29.08-25.97,1.25-38.08-9.21
				c-10-8.64-31.23,16.28-32.47-3.51c-0.91-14.57,24.42-18,40.42-18.62c11.41-0.44,28.89,18.41,31.42-6.07
				C427.2,687.7,406.2,689.12,393.52,687.17z M2134.86,3601.13c2.45,19.87-0.54,42.55,19.58,47.27
				c16.35,3.84,28.61-14.91,27.46-29.38c-4.34-54.56-3.2-107.73,16.4-159.85c4.08-10.86-3.81-22.81-16.97-25
				c-12.8-2.12-17.12,7.8-19.08,18.37C2152.9,3502.91,2143.67,3553.3,2134.86,3601.13z M483.74,210.85
				c-12.22,25.67,0.87,23.9,21.11,16.09c25.82-9.97,52.04-18.91,78.18-28.02c6.74-2.35,15.9-7.52,19.72,1.72
				c3.98,9.6-5.47,12.14-12.85,14.06c-17.97,4.67-19.44,7.36-8.23,26.88c23.14,40.3,40.68-25.85,59.19,0.69
				c-0.52-17.23,0.16-34.63-2.29-51.57c-0.73-5.04-18.91-6.71-1.83-15.71c6.94-3.66,26.55,2.78,18.41-14.76
				c-7.81-16.82-20.97-5.21-32.09-0.08c-30.72,14.18-61.46,28.35-92.59,41.57c-8.62,3.66-21.39,9.27-25.66-4.65
				c-4.52-14.73,7.97-19.55,19.53-21.81c18.29-3.58,36.88-5.68,55.12-9.49c4.15-0.87,7.38-6.15,11.03-9.4
				c-2.26-2.36-4.08-5.63-6.83-6.95C548.69,132.66,488.14,168.63,483.74,210.85z M1152.38,1309.53
				c38.33-4.96,73.19-8.81,107.77-14.36c10.37-1.66,29.01-7.49,22.61-18.83c-12.53-22.18-30.51-42.27-49.71-59.3
				c-9.75-8.64-19.35,3.2-25.36,14.23c-37.04,68-62.83,77.89-136.59,53.94c-5.04-1.64-10.87-0.84-16.34-1.18
				c3.88,4.12,7.23,11.08,11.71,11.91C1095.93,1301.37,1125.63,1305.46,1152.38,1309.53z M3477.92,2962.84
				c-18.68-88.94-32.74-174.86-73.03-252.91c-7.72-14.95-16.95-40.77-34.59-32.88c-19.18,8.58-4.32,34.69,3.33,45.96
				c49.36,72.67,68.51,156,90.34,238.65c1.34,5.09,5.96,9.32,9.05,13.94C3475.15,2970.07,3477.27,2964.54,3477.92,2962.84z
				 M4492.98,2115.81c-3.21,0.13-21.39-7.37-17.48,17.47c3.26,20.71,4.69,44.77,33.85,45.47c31.64,0.76,89.45-63.63,71.59-87.78
				C4552.18,2052.08,4535.2,2123.17,4492.98,2115.81z M2856.43,3781.66c-5.23,18.81-7.56,35.37-14.29,49.9
				c-23.27,50.2,7.68,80.64,38.89,110.94c6.46,6.27,15.85,8.02,24.06,0.81c8.08-7.1,6.45-15.93,3.34-24.38
				c-15.15-41.24-30.56-82.38-45.92-123.53C2861.21,3791.95,2859.54,3788.66,2856.43,3781.66z M4569.21,3619.34
				c12.05-18.3,2.39-20.4-13.98-21.05c-9.41-0.37-19.69-4.37-27.58-9.71c-6.48-4.39,7.68-31.15-11.88-19.1
				c-13.34,8.21-15.44,34.59-22.68,52.81c-5.55,13.96,5.91,12.28,13.34,16.1c16.51,8.5,37.82,7.62,50.43,25.26
				c0.76,1.06,11.93,20.44,23.41,5.94c8.99-11.35,25.52-23.38,24.76-34.12c-0.92-13-15.98,1.67-25.25,0.53
				C4568.35,3634.59,4562.82,3631.19,4569.21,3619.34z M4329.79,2669.9c-7.26,1.81-15.56,4.63-24.09,5.88
				c-34.16,5.01-37.18,29.01-38.67,57.03c-0.37,6.92-27.1,3.99-18.74,23.64c0.66,1.55,14.79,0.4,19.57-3.4
				c14.4-11.45,41.24-5.59,44.82-31.85c-21.78-2.15-9.84-8.17-0.95-11.82c9.07-3.73,18.9-5.88,28.6-7.34
				c0.84-0.13,3.65,10.07,4.81,15.63c1.67,8.02-14.06,11.87-5.54,21.84c6.37-5.55,14.87-9.95,18.63-16.9
				c6.72-12.44,27.11-20.9,17.9-38.09C4367,2667.51,4345.32,2679.16,4329.79,2669.9z M301.76,2417.32
				c-18.99-38.6-35.03-78.26-89.57-55.02c-4.93,2.1-15.95,0.26-11.24,7.34c18.12,27.24,38.77,52.8,58.47,78.98
				C262.04,2423.5,300.08,2442.56,301.76,2417.32z M4548.32,1530.45c-31.04-3.33-43.69,5.4-38.6,16.31
				c13.69,29.32,39.7,48.82,67.86,63.74c5.48,2.9,25.2,2.62,19.28-13.19C4585.07,1565.87,4573.05,1532.29,4548.32,1530.45z
				 M4586.24,3081.29c-18.36-1.05-24.81,8.54-30.95,23.11c-10.9,25.85,12.92,35.56,21.82,51.23c7.96,14.03,24.87,8.33,37.7,3.11
				c9.23-3.76,18.63-9.64,17.69-21.82c-0.82-10.64-9.82-13.92-18.46-16.1c-16.65-4.21-34.74-5.7-18.74-31
				C4605.14,3074.27,4589.69,3082.22,4586.24,3081.29z M4034.4,2145.88c-0.62,7.1-0.75,13.44-1.81,19.62
				c-1.43,8.36-3.58,16.6-5.43,24.89c7.29-6.28,13.92-13.63,22-18.67c44.58-27.81,0.91-55.44-1.87-82.58
				c-0.43-4.17-29.34-11.66-40.43-6.87c-12.82,5.54-27.87,22.8-28.19,35.33c-0.28,11.03,18.67,0.82,29.09,0.22
				C4028.62,2116.63,4032.74,2130.37,4034.4,2145.88z M4383.88,2930.57c7.26-15.4,19.18-31.65,22.41-49.47
				c6.08-33.57-27.75-10.19-39.37-22.97c-4.35-4.78-25.34,14.86-21.2,17.19C4368,2887.84,4348.93,2923.18,4383.88,2930.57z
				 M4345.08,2770.89c-13.11,14.82-30,33.68-46.44,52.91c-1.31,1.53,0.42,5.67,0.75,8.6c17.2-6.78,34.44-13.45,51.57-20.42
				c4.59-1.87,8.9-4.49,13.17-7.03c7.84-4.66,22.87-4.12,19.31-17.94C4380.07,2773.92,4365.7,2775.55,4345.08,2770.89z
				 M211.94,1600.34c-0.99-1.69-2.49-4.27-3.99-6.84c-3.94,2.77-8.53,4.95-11.71,8.42c-23.23,25.4-32.29,63.12-68.04,77.96
				c-2.48,1.03-2.26,8.55-3.29,13.05c4.57-0.42,9.14-0.83,13.71-1.26C193.37,1686.5,183.08,1628.71,211.94,1600.34z M3851.82,2099.3
				c-2.46-19.18-15.61-29.94-34.46-31.93c-15.47-1.63-33.12,15.81-29.21,21.74c11.11,16.83,38.79,9.93,53.72,27.96
				C3845.05,2120.91,3850.4,2107.92,3851.82,2099.3z M1254.48,2684.65c-2.05-10.51,1.38-27.35-14.67-25.42
				c-17.46,2.1-21.53,19.45-21.92,34.94c-0.31,12.24,5.64,24.3,19.27,22.93C1256.27,2715.19,1252.67,2697.71,1254.48,2684.65z
				 M3637.77,2118.26c25.97,6.35,43.81,11.65,62.03,14.71c7.22,1.21,16.45-11.21,13.05-12.08c-22.24-5.7-14.13-39.11-30.17-38.46
				C3669.4,2082.98,3656.88,2102.08,3637.77,2118.26z M4614.8,2468.81c0.25,7.68-0.86,19.2,6.61,14.23
				c16.4-10.93,29.72-26.73,33.19-47.56c2.21-13.24-5.97-25.79-17.54-23.49C4600.66,2419.21,4634.75,2455.36,4614.8,2468.81z
				 M3026.53,924.96c-6.95-27.8-12.44-57.44-31.94-80.33c-3.05-3.58-8.44,10.95-5,16.82c15.41,26.29,4.84,63.4,33.5,82.76
				C3027.53,947.2,3026.77,932.64,3026.53,924.96z M3435.54,2094.99c-17.86,1.61-36.21,7.98-51.54-4.97
				c-0.55-0.46-11.64,7.65-11.08,10.41c3.48,17.21,17.2,30.54,31.87,32.11C3424.42,2134.63,3421.08,2107.39,3435.54,2094.99z
				 M4681.98,2795.83c14.56-5.03,34.66-2.74,37.86-23.83c1.64-10.77-9.27-16.87-17.37-13.66c-15.09,5.99-31.96,13.15-41.52,25.08
				C4655.98,2789.64,4670.66,2797.73,4681.98,2795.83z M4606.08,3208.12c27.98,0.28,39.43-16.78,51.92-32.36
				c-5.36-1.45-10.74-4.2-16.07-4.11c-22.2,0.39-42.12,9.08-52.38,28.24C4586.13,3206.29,4602.31,3207.79,4606.08,3208.12z
				 M791.9,3381.92c1.13,18.6,8.36,35.26,24.21,47.23c5.97,4.5,11.23,1.6,15.24-5c14.16-23.32-18.09-13.84-18.74-26.88
				c-0.31-6.09-2.25-12.09-3.35-18.15c-1.41-7.73,8.26-21.16-3.92-22.19C792.47,3355.84,797.26,3372.59,791.9,3381.92z
				 M4462.69,3046.59c3.18,11.85-2.03,31.81,15.87,32.83c21.49,1.22,10.34-27.92,25.35-35.54c-16.64,0.2-21.66-17.17-32.43-21.99
				C4463.68,3018.38,4462.96,3036.26,4462.69,3046.59z M623.45,361.38c-16.96-15.58-27.79-27.09-40.18-36.54
				c-19.58-14.93-35.2-43.78-67.04-22.31c-3.05,2.05-5.68,4.72-8.51,7.11c2.29,2.14,5.18,6.52,6.79,6.09
				C559.48,303.83,581.22,346.35,623.45,361.38z M4347.77,3847.57c-3.67,1.33,3.17-1.15,10-3.64c-1.84-2.57-4.16-7.6-5.44-7.35
				c-24.19,4.74-24.64-13.8-29.81-28.71c-1.24-3.57-7.46-6.29-11.91-7.47c-2.08-0.55-7.93,4.94-7.75,5.24
				C4312.14,3821.99,4300.29,3854.81,4347.77,3847.57z M4312.86,3527.23c-7.78-0.01-21.44-13.14-20.13,7.64
				c0.8,12.79,12.22,19.74,23.33,20.81c17.48,1.69,27.2-15.07,24.94-26.06C4337.41,3512.12,4322.18,3536.1,4312.86,3527.23z
				 M4596.79,2446.62c-19.21,2.04-34.92-3.65-49.98-11.54c-3.36-1.76-17.08,7.88-16.77,8.67c6.91,17.74,24.76,17.13,39.42,21.26
				C4579.55,2467.84,4589.08,2465.1,4596.79,2446.62z M4551.96,2397.56c-15.37-3.82-21.76-7.71-26.09-6.09
				c-17.85,6.68-35.04,15.6-38.06,37.18c-0.94,6.72,6.99,14.07,11.96,9.32C4513.68,2424.68,4524.25,2407.93,4551.96,2397.56z
				 M3883.96,2746.14c15.11,1.85,41.33-2.07,34.72-13.66c-11.98-21-42.66,8.05-63.55-8.19c-4.69-3.64-15.53-1.24-12.79,6.29
				C3849.5,2750.23,3868.53,2744.59,3883.96,2746.14z M4701.96,1880.89c9-3.91,23.1-7.03,25.11-20.6c1.34-9.07-10.3-8.79-17.38-8.58
				c-11.19,0.33-23.66,0.98-25.1,15.82C4683.72,1876.58,4690.87,1880.12,4701.96,1880.89z M1279.32,3180.73
				c-12.3-5.56-24.88-11.33-37.54-16.94c-6.98-3.1-13.96-2.13-12.11,6.75c3,14.42,12.09,24.93,28,25.94
				C1266.82,3197.06,1274.92,3193.79,1279.32,3180.73z M3448.03,2222.6c0.28,8.72,2.36-4.15-11.52-3.71
				c-9.08,0.29-17.92,8.09-26.87,12.53c7.29,13.17,11.86,33.26,22.66,37.5C3442.5,2272.91,3447.95,2254,3448.03,2222.6z
				 M4688.52,2836.65c-2.07-13.01-11.46-8.22-18.14-8.72c-29.5-2.19-2.44,33.18-24.02,36.4c2.76,1.7,6.31,5.49,8.16,4.79
				C4670.58,2863.07,4680.6,2850.48,4688.52,2836.65z M2968.93,1773.43c5.5-8.05,18.6,9.89,19.43-7.05
				c0.31-6.36-5.49-23.61-17.96-19.12c-15.1,5.44-43.44,8.96-36.29,29.6C2941.74,1798.92,2951.83,1750.22,2968.93,1773.43z
				 M4759.99,3205.86c-1.54-10.33-7.53-16.2-17.74-14.27c-6.56,1.24-16.6,4.46-17.93,8.92c-3.19,10.68,6.38,14.85,15.38,16.31
				C4748.81,3218.31,4757.2,3216.82,4759.99,3205.86z M779.79,3443.02c-14.94-17.62-6.84-48.69-36.2-56.59
				c-1.92-0.52-7.24,4.46-7.16,4.6c12.26,20.55,24.88,40.89,37.48,61.25C775.69,3449.48,777.47,3446.68,779.79,3443.02z
				 M4573.25,2328.81c17.23-4.39,28.43-11.53,32.19-26.08c2.11-8.16-3.65-12.66-10.23-8.08c-11.65,8.11-26.62,13.65-30.16,29.78
				C4564.83,2325.47,4571.89,2328.11,4573.25,2328.81z M4518.98,3123.68c-6.63-6.37,2.73-23.31-11.9-23.42
				c-11.26-0.08-15.09,12.57-16.63,22.43c-1.28,8.2-2.42,19.88,12.16,16.9C4510.32,3138.03,4521.86,3138.11,4518.98,3123.68z
				 M4610.18,3262.03c4.22-11.56,1.59-20.51-11.49-21.73c-13.23-1.23-13.04,8.73-10.96,17.75c2.37,10.24-0.55,26.64,13.27,27.3
				C4616.49,3286.1,4607.58,3270.25,4610.18,3262.03z M3667.86,3724.6c-9.67-7.41-17.14-17.36-22.34-16.28
				c-12.67,2.62-20.86,14.08-20.33,27.24c0.2,5.08,12.41,14.71,13.59,13.93C3648.31,3743.12,3656.53,3734.78,3667.86,3724.6z
				 M438.06,333.45c15.04-2.55,32.06,4.05,33.32-9.67c1.23-13.31-15.56-8.93-24.1-8.21c-13.69,1.15-30.24-5.51-40.07,10.73
				C418.9,329.01,430.59,331.72,438.06,333.45z M4517.07,2838.63c-19.75-2.8-33.42-0.74-38.29-13.52
				c-3.52,5.74-9.11,11.15-10.08,17.3c-1.57,9.92,4.37,18.09,14.95,15.43C4492.35,2855.66,4499.89,2848.82,4517.07,2838.63z
				 M3500.92,3929.12c-5.33-30.51-10.65-61.01-18.22-104.33C3477.23,3870.03,3483.75,3900.4,3500.92,3929.12z M3052.31,1248.81
				c-1.76-9.83-2.47-28.47-9.98-23.84c-16.5,10.17,0.63,38.45-19.02,51.69c-0.23,0.16,5.21,10.62,6.12,10.33
				C3048.45,1280.98,3046.91,1262.62,3052.31,1248.81z M3050.19,1070.95c3.59,10.79-4.7,25.27,9.87,33.48
				c2.39-6.72,7.31-13.71,6.63-20.11c-1.26-11.96-4.5-32.93-9.16-33.56C3044.5,1049.01,3052.98,1063.21,3050.19,1070.95z
				 M4799.56,2806.34c-3.44-1.96-7.46-6.05-9.68-5.24c-11.22,4.13-21.98,9.53-32.89,14.49c3.72,3.94,7.08,10.76,11.23,11.28
				C4781.91,2828.57,4791.37,2820.73,4799.56,2806.34z M2678.75,3906.2c-7.55-11.21-13.45-19.96-19.34-28.71
				c-3.25,9.06-7.27,17.93-9.5,27.23c-1.76,7.34-1.15,17.22,9.36,15.31C2666.3,3918.76,2672.17,3911.13,2678.75,3906.2z
				 M3166.39,2417.36c-16.77-11.34-30.98-22.62-46.75-30.93c-7.92-4.17-15.88,4.42-13.38,11.8c6.53,19.2,30.33,9.8,42.28,22.34
				C3150.67,2422.81,3159.4,2418.77,3166.39,2417.36z M350.57,1325.84c15.58,0.95,17.95-11.06,18.33-21.72
				c0.21-5.89-5.66-11.99-8.78-18c-8.61,10.09-20.44,18.95-24.92,30.62C330.73,1328.4,347.02,1318.59,350.57,1325.84z
				 M3103.34,1227.28c-4.32,15.39-7.3,20.69-6.94,25.75c0.88,12.6,3.83,24.91,16.06,31.82c0.5,0.28,7.34-6.66,6.72-9.08
				C3115.85,1262.84,3111.08,1250.27,3103.34,1227.28z M4487.18,2977.5c14.17,10.49,28.34,20.99,42.51,31.48
				c0.9-2.16,3.01-4.68,2.5-6.42C4525.98,2981.56,4507.07,2979.14,4487.18,2977.5z M3452.25,2597.39
				c22.79,14.27,43.28,25.88,68.97,22.92c1.46-0.17,2.52-3.86,3.77-5.92c-20.74-6.79-41.45-13.68-62.28-20.2
				C3460.85,2593.6,3458.23,2595.46,3452.25,2597.39z M4765.47,2540.24c4.29-10.16,9.91-20.83,12.85-32.2
				c0.82-3.19-6.9-12.48-9.64-12.06c-18.31,2.79-8.24,19.97-13.35,29.92C4752.78,2530.88,4752.8,2538.26,4765.47,2540.24z
				 M4439.78,2390.11c7.13,1.38,15.56,4.82,14.49-8.06c-0.81-9.77-6.04-18.04-15.94-14.78c-6.58,2.17-15.08,11.06-15.33,17.24
				C4422.51,2396.88,4433.94,2388.22,4439.78,2390.11z M3353.53,2340.85c-14.28-9.52-24.09-16.88-34.7-22.81
				c-6.04-3.38-13.88-2.13-12.53,6.76c1.79,11.75,8.68,21.31,22.2,21.29C3335.36,2346.08,3342.21,2343.34,3353.53,2340.85z
				 M4466.6,3778.91c-2.87-7.55,9.73-20.53-2.73-22.08c-10.77-1.33-13.34,13.98-12.97,23.48c0.31,7.76,7.01,22.19,8.83,21.87
				C4475.46,3799.46,4461.68,3786.38,4466.6,3778.91z M4395.98,3796.28c-5.82,9.87-12.85,16.58-13.17,23.6
				c-0.46,10.01,9.77,8.47,16.7,7.9c8.31-0.69,14.84-5.66,12.07-14.19C4409.73,3807.89,4403.02,3803.76,4395.98,3796.28z
				 M3389.22,2313.42c-23.29-8.01-34.44-12.24-45.84-15.59c-5.78-1.7-16.48-0.48-11.46,6.36c5.56,7.59,18.44,10.48,28.67,13.67
				C3365.17,2319.28,3371.08,2316.47,3389.22,2313.42z M3335.2,2061.08c-2.05-12.89-0.02-25.39-14.12-29.23
				c-0.78-0.21-5.86,7.59-5,10.5c3.28,11.12,8.18,21.76,12.47,32.58C3331.03,2069.76,3333.51,2064.59,3335.2,2061.08z M2457,3861.3
				c1.54-11.64-2.23-17.56-6.11-12.12c-7.51,10.53-11.82,23.44-16.71,35.66c-0.8,2,2.18,5.52,3.41,8.34
				C2444.99,3881.03,2452.38,3868.89,2457,3861.3z M3532.53,2447.57c4.65-8.95,17.64,12.72,17.75-5.18
				c0.07-10.87-15.9-7.11-25.25-8.17c-12.68-1.45-34.44,3.94-32.87,8.26C3501.14,2467.23,3518.13,2434.75,3532.53,2447.57z
				 M4465.31,3564.69c-6.4-1.02-10.19,4.06-10.54,13.12c-0.33,8.79,3.29,14.75,12.34,15.16c6.88,0.32,16.55,2.19,15.72-9.56
				C4482.23,3574.81,4480.5,3565.62,4465.31,3564.69z M4230.93,3725.71c-3.72-1.25-9.35-4.81-11.1-3.43
				c-7.47,5.89-13.8,13.24-20.55,20.05c2.95,1.55,6.45,4.99,8.75,4.31C4217.66,3743.81,4227.35,3740.26,4230.93,3725.71z
				 M1360.39,3844.43c4.55-9.48,0.68-12.49-4.82-11.69c-8.14,1.19-16.02,4.14-24,6.34c2.36,3.45,4.88,9.93,7.04,9.81
				C1346.56,3848.45,1354.39,3845.81,1360.39,3844.43z M1271.92,2338.71c4.1-16.11,7.08-21.47,6.2-26.09
				c-0.96-5.09-5.47-9.5-8.44-14.21c-3.76,2.53-10.53,4.97-10.62,7.61C1258.91,2311.02,1262.6,2316.14,1271.92,2338.71z
				 M4666.75,3360.34c-2.99,4.25-5.21,7.39-7.42,10.54c8.06,5.19,15.85,10.95,24.43,15.05c1.59,0.76,6.38-5.17,9.7-8.02
				C4685.41,3372.61,4677.35,3367.31,4666.75,3360.34z M2991.76,3920.96c-4.56-28.93-6.62-42-8.68-55.07
				c-2.11,0.4-5.81,0.33-6.09,1.28C2972.81,3881.09,2976.51,3893.82,2991.76,3920.96z M715.53,161.95
				c-8.4-10.59-15.18-19.14-21.96-27.69c-2.18,3.68-5.69,7.16-6.3,11.09c-1.98,12.62,2.5,22.65,15.63,25.89
				C705.47,171.88,709.53,166.55,715.53,161.95z M4744.81,2931.66c4.71-12.26,8.9-18.14,8.48-23.66
				c-0.33-4.36-6.28-11.51-9.85-11.58c-4.42-0.08-11.3,5.11-12.7,9.45C4729.65,2909.28,4735.25,2914.85,4744.81,2931.66z"/>
			<path d="M4834.08,429.28c-34.47-15.04-68.01-32.98-103.64-44.41c-47.83-15.35-57.51-49.11-57.87-93.24
				c-0.2-24.34,9.55-47.23,1.47-73.63c-6.96-22.76,20-12.38,31.97-16.8c18.32-6.77,36.45-14.06,54.66-21.13
				c-11.25-18.43-31.59-10.68-47.38-16c-12.93-4.36-26.88-6.61-40.54-7.74c-42.31-3.49-62.8-42.45-39.11-77.95
				c18.02-27.02,42.8,10.39,64.76-4.69c7.68-5.27,26.31,7.88,31.47-9.52c3.77-12.71-8.58-19.62-17.14-26.8
				c-6.45-5.41-17.68-7.98-14.74-19.34c3.22-12.41,15.32-10.34,24.77-13.02c37.28-10.54,74.34-22.32,111.32,0.72
				c0,35.3,0,70.59,0,105.89c-11.53-5.9-19.38-19.94-35.02-16.35c-2.08,0.48-4.82,7.41-4.5,7.65c10.55,7.84,21.36,15.34,32.36,22.55
				c1.86,1.22,4.74,0.88,7.15,1.27c0,17.65,0,35.3,0,52.94c-12.92,3.51-28.91,5.07-28.46,22.96c0.42,17.01,14.12,24.53,28.46,29.99
				C4834.08,298.18,4834.08,363.73,4834.08,429.28z"/>
			<path d="M4834.08,618.36c-34.47-3.84-68.18-16.2-103.8-8.38c-4.71,1.03-15.12-3.82-15.54-6.95c-1.68-12.27,9.47-7.65,15.68-8.96
				c9.79-2.07,20.32-1.76,29.52-5.19c18.31-6.83,30.83-25.98,25.04-40.1c-4.96-12.11-30.79-7.85-40.1,2.33
				c-47.2,51.61-81.5,0.07-117.23-15.58c-38.99-17.07-73.42-44.54-109.83-67.48l0.7,0.71c9.88-33.05,34.62-29.73,57.76-20.53
				c52.35,20.81,103.1,45.68,155.73,65.68c33.07,12.57,68.54,27.88,102.07-1.44C4834.08,547.77,4834.08,583.07,4834.08,618.36z"/>
			<path d="M1120.41,3961.43c0.81-14.06,4.78-18.99,21.42-15.21c18.44,4.2,32.64-4.71,27.97-27.59
				c-2.7-13.21-0.02-27.83,14.58-21.46c51.39,22.45,117.78,9.05,155.37,64.26C1266.64,3961.43,1193.52,3961.43,1120.41,3961.43z"/>
			<path d="M-6.55-758.19c28.93,29.44,67.39,50.6,80.3,94.04c1.66,5.57,16.06,7.2,8.82,16.3c-3.72,4.68-14.32,8.1-19.97,6.3
				c-22.99-7.29-44.26-0.01-66.01,4.55l-3.15-0.17C-6.55-677.51-6.55-717.85-6.55-758.19z"/>
			<path d="M8.58-879.21c-5.61,17.09-5.94,35.15,13.5,40.94c22.63,6.74,34.94,19.15,24.18,39.83c-12,23.06-27.56-2.34-41.86-2.62
				c-3.66-0.07-7.3-1.63-10.95-2.51C3.24-827.83-25.42-859.79,8.58-879.21z"/>
			<path d="M-6.55-637.18L-3.4-637c28.33,26.38,42.07,52.15-3.15,75.46C-6.55-586.75-6.55-611.96-6.55-637.18z"/>
			<path d="M2164.55,3935.44c4.92,8.66,9.83,17.33,14.75,25.99c-17.65,0-35.3,0-52.94,0
				C2127.51,3935.75,2135.68,3920.38,2164.55,3935.44z"/>
			<path d="M4350.02,3961.43c2.44-3.58,4.89-7.17,7.33-10.75c16.69-17.51,34.51-19.36,53.58-3.85l-0.84-0.77
				c0.15,5.13,0.29,10.25,0.44,15.38C4390.36,3961.43,4370.19,3961.43,4350.02,3961.43z"/>
			<path d="M4113.92,1893.35c-33.81,10.04-66.41,18.82-49.87-37.89c3.27-11.21-4.56-18.57-12.62-25.15
				c-12.05-9.85-24-20.79-13.78-37.83c10.31-17.19,27.58-19.92,46.06-17.21c22.99,3.38,28.28,28.35,50.15,38.39
				c34.82,15.99-7.67,33.78-11.53,52.18c-2.03,9.68-5.75,18.99-8.72,28.5C4113.59,1894.35,4113.92,1893.35,4113.92,1893.35z"/>
			<path d="M4227.75,2543.21c-7.89,8.09-15.77,17.01-28.43,9.47c-2.04-1.22-3.48-7.53-2.18-9.6c7.69-12.3,18.44-9.57,29.25-4.57
				C4226.49,2540.06,4226.95,2541.62,4227.75,2543.21z"/>
			<path d="M2101.98,1427.83c-64.96,15.5-143.76-44.92-233.1-39.9c-21.49,1.21-43.25-17.66-20.85-47.1
				c3.7-4.86,2.63-13.34,3.76-20.14c-6.65,2.92-14.24,4.65-19.79,8.98c-22.86,17.84-46.89,34.85-44.16,69.77
				c0.55,6.98-5.93,19.92-10.9,20.85c-12.15,2.27-16.82-10.24-18.36-19.65c-5.9-35.94-0.66-71.32,18.94-101.68
				c27.9-43.21,59.27-84.18,89.22-126.06c1.44-2.01,3.15-4.56,5.26-5.26c109.31-36.12,212.21-90.2,337.55-49.82
				c75.6,24.35,137.66,64.61,201.14,106c32.65,21.29,26.48,55.67,4.29,79.29C2337.6,1385.49,2241.54,1428.1,2101.98,1427.83z
				 M2182.2,1254.4c-1.06,68.83-32.77,100.36-80.88,109.37c-52,9.73-85.03-20.79-102.56-68.77c-4.4-12.05-1.2-34.35-19.08-31.43
				c-23.82,3.89-35.02,26.4-42.02,48.6c-5.89,18.68,4.2,28.19,20.92,33.24c39.61,11.99,78.57,27.03,118.9,35.55
				c82.08,17.33,150.9-11.85,174.56-68.12c7.4-17.6,2.82-29.78-9.9-39.66c-17.37-13.49-32.14-33.49-57.33-30.76
				C2182.1,1242.72,2181.2,1259.72,2182.2,1254.4z"/>
			<path d="M1275.57,2114.08c-9.9,1.71-16.41,4.59-22.22,3.56c-31.17-5.53-63.38,10.18-93.95-4.85
				c23.81-35.39,3.86-87.77,45.24-116.37c13.12-9.07,12.84-21.51,12.48-36.52c-1.94-82.82,22.48-152.92,97.63-199.07
				c46.31-28.44,66.8-81.08,104.19-118.2c6.84-6.79,12.27-19.6,23.61-13.11c5.32,3.04,9.07,15.81,7.51,22.82
				c-20.66,92.44-23.05,190.76-88.58,268.85c-21.39,25.49-40.61,40.5-72.43,16.03c-11.28-8.68-29.37-18.1-40.05-1.61
				c-9.69,14.96,3.42,30.64,15.02,38.83c33.6,23.72,70.5,42.84,98.69,73.82c14.23,15.65,42.28,27.35,20.85,54.84
				c-17.96,23.05-35.5,52.47-72.89,25.24C1299.98,2120.55,1285.52,2117.96,1275.57,2114.08z"/>
			<path d="M4082.78,1721.53c18.79-17.2,4.88-36.14-2.64-47.97c-32.27-50.78-1.85-59.7,39.12-68.37
				c77.7-16.44,79.02-21.35,36.72-87.08c-3.11-4.83-5.18-10.32-7.74-15.51c5.83,0.59,14.31-1.08,17.07,2.14
				c21.38,24.99,38.76,53.27,40.11,86.55c0.91,22.49-18.01,29.48-36.17,23.56c-25.45-8.3-50.68,4.39-70.39,18
				c-20.64,14.25-3.45,33.58,4.58,49.97c13.18,26.9,35.97,40.56,63.92,48.16c6.37,1.73,16.95,10.32,16.29,11.89
				c-4.36,10.51-14.79,8.25-22.55,5.28c-22.77-8.7-41.9-29.27-70.05-19.81C4087.09,1729.69,4080.38,1729.48,4082.78,1721.53z"/>
			<path d="M2332.28,982.07c63.89-0.23,119.54,18.58,162.28,67.48c5.42,6.2,14.55,11.86,8.52,21.82c-0.53,0.88-12.2-4.36-18.28-7.55
				c-49-25.71-100.7-43.78-154.59-56.08c-8.64-1.97-23.42-0.48-21.52-15.12C2310.35,979.88,2323.05,981.21,2332.28,982.07z"/>
			<path d="M3876.15,1175.26c39.32,58.63,38.3,61.29-25.38,76.7c-69.59,16.84-71.94,20.55-34.26,80.1
				c9.49,15.01,4.5,13.37-6.77,13.19c-6.28-0.1-12.63-1.03-18.82-0.36c-21.86,2.35-43.66,5.23-65.49,7.91
				c11.49-18.47,35.34-15.66,49.44-28.78c4.36-4.06,7.41-14.91,5.11-19.92c-22.63-49.38,13.33-54.22,45.88-61.85
				C3859.35,1234.39,3885.08,1220.19,3876.15,1175.26z"/>
			<path d="M2220.28,1002.32c-46.1,11.66-92.14,23.55-138.34,34.8c-8.88,2.16-20.2,10.49-26.42-1.57
				c-1.58-3.07,7.99-15.04,14.73-18.74c54.41-29.9,118.17-20.44,175.28-40.35c10.25-3.57,9.68,11.82,8.75,16.63
				C2250.34,1013.39,2232.89,1002.95,2220.28,1002.32z"/>
			<path d="M1560.48,2943.81c-55.57-2.63-103.34-4.54-151.04-7.46c-9.51-0.58-24.93-2.25-23.68-13.56
				c1.53-13.76,16.3-5.31,25.4-6.51c53.88-7.07,106.04,19.52,160.31,7.99c9.14-1.94,27.45,0.66,24.27,9.79
				C1589,2953.41,1567.37,2941.66,1560.48,2943.81z"/>
			<path d="M4517.82,468.05c-32.74,24.24-61.74,4.69-90.1-9.25c-13.08-6.43-10.13-21.85-7.26-33.96c1.13-4.76,8.68-12.59,10.3-11.91
				c12.23,5.16,34.18,12.85,33.79,18.36c-3.29,45.71,37.07,24.14,53.92,37.43C4518.52,468.76,4517.82,468.05,4517.82,468.05z"/>
			<path d="M1520.28,2292.13c13.06,2.95,33.91,7.52,27.37,14.06c-14.73,14.74-31.62,35.15-55.25,33.4
				c-13.06-0.97-33.54-12.03-35.89-22.01c-3.76-15.99,17.85-7.59,27.37-13.05C1495.45,2297.9,1509.5,2295.6,1520.28,2292.13z"/>
			<path d="M3745.64,1258.24c-45.78-11.26-93.5-17.85-136.49-35.78c-20.66-8.62,2.53-43.14-10.92-66.64
				C3615.41,1241.03,3697.17,1223.48,3745.64,1258.24z"/>
			<path d="M3512.75,1456.97c-103.08-5.15-136.71-29.69-139.67-110.11c6.98,90.1,92.95,73.36,138.86,110.83
				C3511.98,1457.67,3512.75,1456.97,3512.75,1456.97z"/>
			<path d="M812.23-89.79c-3.13,2.99-5.69,5.53-8.34,7.97c-27.41,25.23-54.63,50.67-82.39,75.51c-7.07,6.32-16.78,15.67-25.45,4.66
				c-8.12-10.31,4.88-14.36,10.73-19.55c25.98-23.07,51.7-46.5,78.78-68.23C791.48-94.18,802.62-100.08,812.23-89.79z"/>
			<path d="M873.3-112.89c-16.08-3.59-28.5,2.96-30.24-9c-0.94-6.47,8.01-20.83,11.05-20.43c32.96,4.29,51.89-16.93,72.4-36.3
				c5.21-4.92,12.95-10.11,19.04-2.28c1.53,1.97-3.32,11.35-7.38,14.81C915.44-146.73,892.06-128.15,873.3-112.89z"/>
			<path d="M2002.66,1029.38c1.73,1.14,8.58,3.74,8.47,6c-0.25,5.18-2.5,12.26-6.41,14.9c-14.41,9.73-29.71,18.18-44.89,26.72
				c-14.28,8.02-32.69,29.55-43.87,11.48c-7.67-12.39,19.71-23.6,34.28-31.85C1966.45,1047.47,1983.28,1039.39,2002.66,1029.38z"/>
			<path d="M146.13-707.96c-0.72,8.86-7.11,10.43-13.02,7.3c-27.02-14.32-58.93-23.08-69.87-56.87c-0.85-2.64,3.65-7.01,5.67-10.58
				c24.63,17.83,49.31,35.61,73.81,53.61C144.48-713.2,145.01-710.23,146.13-707.96z"/>
			<path d="M1666.07,2076.66c-10.83-2.03-27.57-0.39-23.68-8.78c10.54-22.74,36.53-20.97,57.6-25.48c6.56-1.4,20.24-0.53,17.02,7.87
				C1707.96,2073.99,1682.7,2070.23,1666.07,2076.66z"/>
			<path d="M1007.06-122.43c-15.49-11.9-42.38-30.48-32.54-42.53c11.38-13.94,42.19-15.38,64.62-15.59
				c12.03-0.12,1.32,10.8-2.96,14.19c-14.88,11.78-28.98,23.66-29.95,44.63C1006.22-121.71,1007.06-122.43,1007.06-122.43z"/>
			<path d="M3526.25,1238.82c-28.19-0.87-17.94,38.68-36.42,35.68c-10.3-1.68-27.39-26.76-24.36-32.92
				c8.92-18.17,30.79-3.86,46.81-8.2C3516.16,1232.33,3521.55,1236.86,3526.25,1238.82z"/>
			<path d="M4596.39,32.24c12.83,1.35,23.19,5.41,22.94,19.49c-0.18,10.11-8.14,17.53-17.22,13.89
				c-10.25-4.11-28.29-0.42-29.19-15.56C4572.22,38.21,4585.21,33.24,4596.39,32.24z"/>
			<path d="M178.03-422.88c-12.95,8.02-18.47,14.17-22.08,13.2c-16.05-4.3-29.45-13.71-31.89-31.36
				c-1.14-8.27,7.22-15.31,14.87-11.07C151.59-445.09,162.44-434.83,178.03-422.88z"/>
			<path d="M4265.28,1167.7c-31.69-7.01-11.14-44.63-31.4-58.18c-0.19-0.13,2.9-5.16,4.46-7.9c14.64,17.97,31.21,34.77,43.12,54.41
				C4287.5,1165.99,4273.28,1164.15,4265.28,1167.7z"/>
			<path d="M4409.44,1694.39c-15.13-33.72-50.27-41.12-94.35-63.18c56.12,6.54,96.55,7.33,93.81,63.89
				C4408.88,1695.15,4409.44,1694.39,4409.44,1694.39z"/>
			<path d="M3941.16,1942.2c10-22.6,30.52-23.36,50.73-23.54c2.4-0.02,7.78,8.68,6.84,10.12c-15.06,23.11-38.03,11.77-58.31,12.57
				C3940.4,1941.35,3941.16,1942.2,3941.16,1942.2z"/>
			<path d="M4593.28,330.27c-5.03-3.87-18.4-8.99-20.5-17.04c-2.72-10.4,11.09-10.27,19.1-10.43c10.17-0.21,20.53,2.1,21.15,15.12
				C4613.46,327.06,4607.18,330.75,4593.28,330.27z"/>
			<path d="M3243.02,1632.19c5.93-14,12.87-22.67,26-21.84c10.7,0.68,24.37,10.27,20.75,16.42c-7.33,12.44-29.29-5.69-38.67,12
				C3248.19,1636.4,3245.27,1634.02,3243.02,1632.19z"/>
			<path d="M3996.12,1128.66c0.16,6.95-2.93,18.2-5.58,14.77c-11.74-15.22-20.26-33-29.02-50.32c-0.81-1.61,6.26-9.88,7.44-9.41
				C3989.67,1091.88,3989.96,1112.55,3996.12,1128.66z"/>
			<path d="M3831.3,1047.63c-23.4-10.53-21.84-33.47-30.58-50.03c-1.19-2.26,2.85-7.27,4.47-11.01
				c11.51,17.09,23.2,34.07,34.09,51.55C3839.95,1039.19,3834.25,1044.21,3831.3,1047.63z"/>
			<path d="M3710.36,1107.54c10.57-12.65-19.87-27.23-0.68-42.25c6.09,17.36,12.42,34.64,18.18,52.12
				c3.32,10.09-2.41,14.03-11.53,13.41C3696.2,1129.45,3708.95,1117.82,3710.36,1107.54z"/>
			<path d="M425.2-274.67c-10.04,12.64-24.15,16.35-39.65,15.1c-2.2-0.18-3.9-6.47-5.83-9.93c12.04-5.95,23.69-13.04,36.3-17.28
				C421.24-288.54,428.21-283.96,425.2-274.67z"/>
			<path d="M3700.44,1433.67c0.92,6.03-2.21,11.35-7.53,7.92c-22.41-14.47-16.58-42.45-28.04-62.46c-2.17-3.8,2.94-13.03,5.51-8.59
				C3682,1390.66,3690.69,1412.46,3700.44,1433.67z"/>
			<path d="M1140.01,1885.66c-7.61-0.27-16.51-0.36-16.4-10.46c0.11-10.63,8.62-14.4,18.08-14.22c8.29,0.16,14.62,4.83,14.56,13.5
				C1156.18,1884.67,1147.32,1884.58,1140.01,1885.66z"/>
			<path d="M3247.89,1211.97c-20.33-0.73-32.12,17.31-49.32,21.73c0.58-4.67-0.48-10.61,2-13.79
				C3213.34,1203.53,3231.17,1210.1,3247.89,1211.97z"/>
			<path d="M4392.63,424.57c-2.49,2.67-6.28,10.08-9.94,10.02c-9.29-0.16-16.19-7.12-14.85-16.67c0.56-3.97,7.89-9.22,12.69-9.88
				C4389.41,406.83,4393.12,413.24,4392.63,424.57z"/>
			<path d="M3390.23,1821.99c-0.47-2.44-0.91-4.89-1.43-7.32c-2.74-12.92-11.78-26.05,0.11-38.47c1.42-1.49,10.96,1.69,10.92,2.34
				c-0.91,14.8,9.99,32.81-10.5,42.7C3389.35,1821.27,3390.23,1821.99,3390.23,1821.99z"/>
			<path d="M4443.51,1025.31c-19.39,0.33-37.02-4.15-50.2-19.45c-0.93-1.08,1.9-7.87,3.07-7.9c21.21-0.5,32.04,16.58,46.3,27.96
				C4442.73,1025.89,4443.51,1025.31,4443.51,1025.31z"/>
			<path d="M724.58,57.22c-4.4-6.72-10.49-12.29-9.42-15.3c1.51-4.22,8.4-8.98,12.89-8.89c3.7,0.08,7.26,6.88,10.88,10.71
				C734.87,47.56,730.8,51.39,724.58,57.22z"/>
			<path d="M3974.62,1400.84c6.73,18.16,13.52,36.31,19.95,54.58c0.21,0.59-3.32,2.49-5.11,3.78
				c-8.19-18.46-16.37-36.92-24.56-55.37C3968.14,1402.83,3971.38,1401.83,3974.62,1400.84z"/>
			<path d="M3676.16,673.33c12.69,20.78,18.64,29.75,23.71,39.2c2.16,4.02,2.61,12.61-4.37,8.15c-7.51-4.8-11.87-14.9-16.79-23.18
				C3677.02,694.66,3677.8,690.34,3676.16,673.33z"/>
			<path d="M4093.17,1054.13c-2.71,1.23-6.28,3.92-7.3,3.16c-12.63-9.41-19.23-22.64-21.65-37.88c-0.66-4.13,1.04-13.4,6.46-6.63
				C4079.86,1024.24,4085.16,1038.8,4093.17,1054.13z"/>
			<path d="M4098.64,1174.44c-16.22,0-22.37,1.67-26.78-0.4c-6.33-2.97-11.39-8.66-16.99-13.19c5.52-1.04,11.56-3.97,16.44-2.64
				C4077.76,1159.96,4083.32,1165.04,4098.64,1174.44z"/>
			<path d="M3355.12,1535.21c-10.22,9.08-19.82,20.96-35.43,10.43c-1.9-1.28-2.74-7.65-1.3-9.83c11.97-18.16,24.1,0.55,36.38,0.18
				C3354.86,1535.86,3355.12,1535.21,3355.12,1535.21z"/>
			<path d="M2422.95,247.25c-3.63-1-7.38-1.7-10.88-3.06c-13.66-5.3-29.85-17.33-26.88-28.06c4.59-16.57,12.11-1.71,16.75,4.84
				c3.6,5.1,6.58,10.64,10.28,15.66c2.97,4.03,6.59,7.58,9.96,11.34C2422.2,247.96,2422.95,247.25,2422.95,247.25z"/>
			<path d="M911.97,3777.38c-12.41-0.63-24.85-1.94-37.24-1.63c-6.98,0.18-13.9,3.03-20.84,4.67c3.9,3.92,7.5,8.23,11.77,11.69
				c16.83,13.65-2.86,11.33-6.62,13.36c-17.4,9.41-35.45,17.61-53.72,26.46c2.27-14.88,29.84-26.55,15.83-39.24
				c-9.75-8.83-22.45,14.78-34.7,22.55c-5.97,3.79-9.93,19.14-19.6,7.08c-4.87-6.07,1.66-13.01,8.33-18.28
				c40.94-32.4,84.47-49.57,136.06-26.17C911.31,3777.81,911.97,3777.38,911.97,3777.38z"/>
			<path d="M4426.11,2515.94c-3.5,10.25,1.16,27.83-18.86,23.92c-18.31-3.57-28.66-9.98-1.64-18.38c6.93-2.15,14.21-3.19,21.33-4.75
				C4426.95,2516.73,4426.11,2515.94,4426.11,2515.94z"/>
			<path d="M3805.62,1756.23c-21.28,7.73-27.16,12.03-30.67,10.59c-4.41-1.81-6.9-8.33-10.21-12.81c4.51-2.66,8.99-7.4,13.54-7.46
				C3783.9,1746.46,3789.59,1750.24,3805.62,1756.23z"/>
			<path d="M3627.91,1951.87c-11.19,3.82-17.95,25.47-34.19,8.83c-12.16-12.45-15.14-25.44-1.08-38.98
				c2.61-2.51,3.64-6.58,5.87-9.58c12.69-17.05,17.94-53.65,40.9-44.23c15.87,6.5-14.26,30.96-18.71,49.55
				c-3.21,13.39-11.45,26.46,6.79,35.18C3627.58,1952.52,3627.91,1951.87,3627.91,1951.87z"/>
			<path d="M4550.59,3381.25c-0.63,7.52-0.03,11.76-1.43,15.19c-6.19,15.14-11.84,31.6-32.3,31.56c-3.11-0.01-6.2-6.22-9.3-9.57
				C4520.63,3407.13,4533.7,3395.84,4550.59,3381.25z"/>
		</g>
	</g>
</g>
</svg>
